<svg version="1.1" xmlns="http://www.w3.org/2000/svg" viewBox="0 0 304.0854187011719 179.2047119140625" width="304.0854187011719" height="179.2047119140625" filter="invert(93%) hue-rotate(180deg)" class="excalidraw-svg"><!-- svg-source:excalidraw --><metadata></metadata><defs><style class="style-fonts">
      </style></defs><rect x="0" y="0" width="304.0854187011719" height="179.2047119140625" fill="#ffffff"></rect><g transform="translate(15.842391967773438 19.493850708007812) rotate(0 6.572654724121094 17.16197967529297)" stroke="none"><path fill="#1e1e1e" d="M 0.83,0 Q 0.83,0 1.39,1.26 1.94,2.53 1.50,4.54 1.06,6.55 0.66,7.98 0.26,9.42 -0.51,12.32 -1.30,15.22 -1.84,17.28 -2.38,19.35 -2.80,21.44 -3.22,23.53 -3.38,25.38 -3.55,27.23 -3.63,28.26 -3.70,29.28 -3.76,29.82 -3.81,30.35 -3.35,30.90 -2.89,31.44 -2.33,31.37 -1.78,31.30 -0.81,31.63 0.14,31.97 0.93,32.05 1.71,32.13 3.09,32.17 4.47,32.22 6.75,32.24 9.02,32.26 10.42,32.27 11.82,32.28 13.03,32.29 14.25,32.29 16.25,32.62 18.26,32.94 18.34,32.95 18.42,32.96 18.49,32.99 18.57,33.02 18.63,33.06 18.70,33.11 18.75,33.17 18.80,33.23 18.84,33.30 18.87,33.37 18.89,33.44 18.91,33.52 18.91,33.60 18.91,33.68 18.89,33.76 18.87,33.83 18.84,33.90 18.80,33.97 18.75,34.03 18.69,34.09 18.63,34.14 18.56,34.18 18.49,34.21 18.41,34.24 18.34,34.25 18.26,34.26 17.94,34.01 17.62,33.77 17.61,33.66 17.60,33.56 17.63,33.45 17.65,33.35 17.71,33.26 17.76,33.17 17.84,33.10 17.93,33.03 18.03,32.99 18.12,32.96 18.23,32.95 18.34,32.95 18.44,32.98 18.54,33.01 18.63,33.07 18.72,33.13 18.78,33.21 18.84,33.30 18.88,33.40 18.91,33.50 18.91,33.61 18.91,33.71 18.87,33.81 18.84,33.91 18.77,34.00 18.71,34.08 18.62,34.14 18.53,34.20 18.43,34.22 18.32,34.25 18.22,34.25 18.11,34.24 18.01,34.20 17.92,34.16 17.83,34.09 17.75,34.02 17.70,33.93 17.65,33.84 17.62,33.73 17.60,33.63 17.62,33.52 17.63,33.42 17.67,33.32 17.72,33.22 17.79,33.15 17.87,33.07 17.96,33.02 18.06,32.97 18.16,32.96 18.27,32.94 18.37,32.96 18.47,32.98 18.57,33.03 18.66,33.08 18.73,33.16 18.81,33.24 18.53,33.09 18.26,32.94 18.34,32.95 18.42,32.96 18.49,32.99 18.57,33.02 18.63,33.06 18.70,33.11 18.75,33.17 18.80,33.23 18.84,33.30 18.87,33.37 18.89,33.44 18.91,33.52 18.91,33.60 18.91,33.68 18.89,33.76 18.87,33.83 18.84,33.90 18.80,33.97 18.75,34.03 18.69,34.09 18.63,34.14 18.56,34.18 18.49,34.21 18.41,34.24 18.34,34.25 18.26,34.26 16.26,35.29 14.26,36.33 13.02,36.33 11.79,36.33 10.39,36.32 8.98,36.31 6.65,36.28 4.32,36.26 2.76,36.20 1.19,36.13 0.00,35.96 -1.18,35.78 -1.91,35.51 -2.63,35.25 -4.08,34.74 -5.54,34.24 -6.13,33.54 -6.72,32.84 -7.24,31.68 -7.76,30.51 -7.75,29.74 -7.73,28.97 -7.65,27.91 -7.57,26.85 -7.36,24.78 -7.15,22.72 -6.68,20.52 -6.22,18.33 -5.66,16.25 -5.11,14.17 -4.30,11.27 -3.49,8.37 -3.12,7.01 -2.74,5.66 -2.34,4.08 -1.94,2.50 -1.39,1.25 -0.83,0 -0.82,-0.10 -0.81,-0.20 -0.77,-0.29 -0.74,-0.39 -0.68,-0.47 -0.62,-0.55 -0.55,-0.62 -0.47,-0.69 -0.38,-0.73 -0.29,-0.78 -0.19,-0.80 -0.10,-0.83 0.00,-0.83 0.10,-0.83 0.19,-0.80 0.29,-0.78 0.38,-0.73 0.47,-0.69 0.55,-0.62 0.62,-0.55 0.68,-0.47 0.74,-0.39 0.77,-0.29 0.81,-0.20 0.82,-0.10 0.83,0.00 0.83,0.00 L 0.83,0 Z"></path></g><g transform="translate(13.6514892578125 39.21186828613281) rotate(0 7.3029632568359375 -0.7302932739257812)" stroke="none"><path fill="#1e1e1e" d="M 0,-0.79 Q 0,-0.79 1.04,-1.40 2.09,-2.01 2.96,-2.01 3.82,-2.02 5.10,-2.21 6.37,-2.41 8.11,-2.51 9.86,-2.61 10.78,-2.65 11.71,-2.69 12.48,-2.33 13.25,-1.98 13.33,-1.97 13.41,-1.97 13.49,-1.94 13.56,-1.92 13.63,-1.87 13.69,-1.83 13.75,-1.77 13.80,-1.72 13.84,-1.65 13.88,-1.58 13.91,-1.50 13.93,-1.43 13.93,-1.35 13.93,-1.27 13.92,-1.19 13.90,-1.11 13.87,-1.04 13.84,-0.97 13.79,-0.91 13.74,-0.85 13.67,-0.80 13.61,-0.75 13.54,-0.72 13.46,-0.69 13.39,-0.68 13.31,-0.67 13.00,-0.84 12.70,-1.02 12.67,-1.12 12.63,-1.22 12.63,-1.32 12.63,-1.43 12.67,-1.53 12.70,-1.63 12.77,-1.72 12.83,-1.80 12.92,-1.86 13.01,-1.92 13.11,-1.95 13.21,-1.97 13.32,-1.97 13.42,-1.96 13.52,-1.92 13.62,-1.88 13.70,-1.81 13.78,-1.74 13.84,-1.65 13.89,-1.56 13.91,-1.46 13.94,-1.35 13.92,-1.25 13.91,-1.14 13.87,-1.05 13.82,-0.95 13.75,-0.87 13.68,-0.80 13.58,-0.75 13.49,-0.70 13.38,-0.68 13.28,-0.67 13.17,-0.68 13.07,-0.70 12.97,-0.75 12.88,-0.80 12.81,-0.88 12.74,-0.96 12.69,-1.05 12.65,-1.15 12.64,-1.25 12.62,-1.36 12.65,-1.46 12.67,-1.57 12.73,-1.66 12.78,-1.75 12.86,-1.82 12.94,-1.89 13.04,-1.92 13.14,-1.96 13.25,-1.97 13.35,-1.97 13.46,-1.95 13.56,-1.92 13.65,-1.86 13.73,-1.80 13.49,-1.89 13.25,-1.98 13.33,-1.97 13.41,-1.97 13.49,-1.94 13.56,-1.92 13.63,-1.87 13.69,-1.83 13.75,-1.77 13.80,-1.72 13.84,-1.65 13.88,-1.58 13.91,-1.50 13.93,-1.43 13.93,-1.35 13.93,-1.27 13.92,-1.19 13.90,-1.11 13.87,-1.04 13.84,-0.97 13.79,-0.91 13.74,-0.85 13.67,-0.80 13.61,-0.75 13.54,-0.72 13.46,-0.69 13.39,-0.68 13.31,-0.67 12.59,0.33 11.88,1.34 10.98,1.38 10.08,1.41 8.52,1.49 6.96,1.57 5.39,1.80 3.83,2.02 2.96,2.01 2.09,2.01 1.04,1.40 0,0.79 -0.09,0.78 -0.19,0.77 -0.28,0.73 -0.37,0.70 -0.44,0.65 -0.52,0.59 -0.59,0.52 -0.65,0.45 -0.69,0.36 -0.74,0.28 -0.76,0.18 -0.79,0.09 -0.79,-0.00 -0.79,-0.09 -0.76,-0.18 -0.74,-0.28 -0.69,-0.36 -0.65,-0.45 -0.59,-0.52 -0.52,-0.59 -0.44,-0.65 -0.37,-0.70 -0.28,-0.73 -0.19,-0.77 -0.09,-0.78 0.00,-0.79 0.00,-0.79 L 0,-0.79 Z"></path></g><g transform="translate(15.112075805664062 19.493850708007812) rotate(0 10.954452514648438 0.7303009033203125)" stroke="none"><path fill="#1e1e1e" d="M 0,-1.45 Q 0,-1.45 1.46,-1.73 2.93,-2.02 4.19,-2.02 5.44,-2.02 7.03,-2.02 8.61,-2.02 9.91,-2.02 11.21,-2.02 12.19,-2.02 13.16,-2.02 14.00,-2.02 14.83,-2.02 15.60,-2.02 16.38,-2.02 17.34,-2.02 18.30,-2.02 18.91,-2.02 19.53,-2.02 21.01,-0.45 22.49,1.11 22.50,1.22 22.51,1.32 22.49,1.42 22.46,1.53 22.40,1.62 22.35,1.71 22.26,1.77 22.18,1.84 22.08,1.88 21.98,1.91 21.87,1.92 21.77,1.92 21.67,1.89 21.57,1.86 21.48,1.79 21.39,1.73 21.33,1.65 21.27,1.56 21.24,1.46 21.21,1.36 21.21,1.25 21.21,1.14 21.25,1.04 21.29,0.94 21.35,0.86 21.42,0.78 21.51,0.72 21.60,0.66 21.70,0.64 21.80,0.61 21.91,0.62 22.02,0.63 22.11,0.67 22.21,0.71 22.29,0.79 22.37,0.86 22.42,0.95 22.47,1.04 22.49,1.15 22.51,1.25 22.50,1.36 22.48,1.46 22.44,1.56 22.39,1.65 22.32,1.73 22.24,1.80 22.14,1.85 22.05,1.90 21.94,1.91 21.84,1.92 21.73,1.90 21.63,1.88 21.54,1.83 21.45,1.78 21.37,1.70 21.30,1.62 21.26,1.52 21.22,1.43 21.22,1.43 21.22,1.43 20.38,1.72 19.53,2.02 18.91,2.02 18.30,2.02 17.34,2.02 16.38,2.02 15.60,2.02 14.83,2.02 14.00,2.02 13.16,2.02 12.19,2.02 11.21,2.02 9.91,2.02 8.61,2.02 7.03,2.02 5.44,2.02 4.19,2.02 2.93,2.02 1.46,1.73 0,1.45 -0.17,1.43 -0.34,1.40 -0.51,1.34 -0.67,1.28 -0.81,1.18 -0.96,1.08 -1.07,0.95 -1.19,0.82 -1.27,0.66 -1.35,0.51 -1.39,0.34 -1.44,0.17 -1.44,-0.00 -1.44,-0.17 -1.39,-0.34 -1.35,-0.51 -1.27,-0.66 -1.19,-0.82 -1.07,-0.95 -0.96,-1.08 -0.81,-1.18 -0.67,-1.28 -0.51,-1.34 -0.34,-1.40 -0.17,-1.43 0.00,-1.45 0.00,-1.45 L 0,-1.45 Z"></path></g><g transform="translate(43.593658447265625 52.35723876953125) rotate(0 1.8257369995117188 10.224136352539062)" stroke="none"><path fill="#1e1e1e" d="M 0.73,0.10 Q 0.73,0.10 1.09,1.65 1.44,3.20 1.12,4.37 0.79,5.54 0.23,7.10 -0.32,8.66 -0.96,10.54 -1.60,12.42 -2.31,14.14 -3.02,15.85 -3.58,16.88 -4.13,17.91 -4.34,18.06 -4.54,18.21 -4.68,18.40 -4.82,18.59 -5.00,18.74 -5.18,18.90 -5.39,19.00 -5.60,19.10 -5.83,19.15 -6.06,19.21 -6.30,19.20 -6.53,19.19 -6.76,19.13 -6.99,19.07 -7.19,18.95 -7.40,18.84 -7.57,18.68 -7.74,18.52 -7.87,18.32 -8.00,18.13 -8.08,17.90 -8.16,17.68 -8.18,17.45 -8.20,17.21 -8.17,16.98 -8.13,16.75 -8.04,16.53 -7.96,16.31 -7.66,15.48 -7.36,14.66 -7.03,13.62 -6.69,12.59 -6.36,11.00 -6.03,9.41 -5.43,7.55 -4.83,5.68 -4.16,3.67 -3.49,1.65 -2.98,0.33 -2.47,-0.98 -2.00,-1.85 -1.52,-2.71 -1.13,-3.31 -0.73,-3.91 -0.63,-4.11 -0.53,-4.32 -0.39,-4.49 -0.25,-4.66 -0.07,-4.80 0.10,-4.93 0.31,-5.02 0.52,-5.11 0.74,-5.15 0.96,-5.18 1.19,-5.16 1.41,-5.14 1.62,-5.07 1.84,-5.00 2.03,-4.88 2.22,-4.76 2.37,-4.60 2.53,-4.43 2.64,-4.24 2.75,-4.04 2.82,-3.83 2.88,-3.61 2.89,-3.38 2.90,-3.16 2.85,-2.94 2.81,-2.72 3.60,-1.82 4.39,-0.92 4.70,0.00 5.01,0.93 5.54,2.34 6.08,3.74 6.53,5.01 6.99,6.28 7.64,9.23 8.29,12.19 8.97,14.36 9.64,16.54 10.16,18.59 10.68,20.64 10.02,20.86 9.35,21.09 8.75,22.10 8.15,23.11 8.25,21.17 8.34,19.23 8.33,19.12 8.32,19.02 8.34,18.91 8.37,18.81 8.42,18.72 8.48,18.63 8.56,18.56 8.64,18.49 8.74,18.45 8.84,18.42 8.95,18.41 9.05,18.41 9.15,18.44 9.26,18.47 9.34,18.53 9.43,18.59 9.49,18.67 9.56,18.76 9.59,18.86 9.62,18.96 9.62,19.07 9.62,19.17 9.59,19.27 9.55,19.37 9.49,19.46 9.42,19.54 9.33,19.60 9.24,19.66 9.14,19.69 9.04,19.71 8.93,19.71 8.83,19.70 8.73,19.66 8.63,19.62 8.55,19.55 8.47,19.48 8.42,19.39 8.36,19.30 8.34,19.19 8.32,19.09 8.33,18.98 8.34,18.88 8.39,18.78 8.43,18.69 8.51,18.61 8.58,18.53 8.68,18.48 8.77,18.43 8.88,18.42 8.98,18.40 9.09,18.42 9.19,18.44 9.28,18.49 9.38,18.54 9.45,18.62 9.52,18.70 9.57,18.79 9.61,18.89 9.61,18.89 9.61,18.89 10.68,20.61 11.75,22.33 10.80,23.45 9.84,24.58 8.33,23.10 6.82,21.61 6.35,19.64 5.87,17.67 5.19,15.34 4.50,13.00 3.94,10.28 3.38,7.56 2.94,6.33 2.50,5.10 1.94,3.61 1.38,2.12 0.97,0.68 0.57,-0.74 -0.08,-2.32 -0.73,-3.91 -0.63,-4.11 -0.53,-4.32 -0.39,-4.49 -0.25,-4.66 -0.07,-4.80 0.10,-4.93 0.31,-5.02 0.52,-5.11 0.74,-5.15 0.96,-5.18 1.19,-5.16 1.41,-5.14 1.62,-5.07 1.84,-5.00 2.03,-4.88 2.22,-4.76 2.37,-4.60 2.53,-4.43 2.64,-4.24 2.75,-4.04 2.82,-3.83 2.88,-3.61 2.89,-3.39 2.90,-3.16 2.85,-2.94 2.81,-2.72 2.47,-2.42 2.14,-2.12 1.94,-1.51 1.75,-0.90 1.39,-0.26 1.02,0.37 0.55,1.60 0.08,2.83 -0.57,4.83 -1.22,6.84 -1.75,8.51 -2.28,10.18 -2.65,11.97 -3.01,13.76 -3.32,14.75 -3.63,15.74 -4.09,16.97 -4.54,18.21 -4.68,18.40 -4.82,18.59 -5.00,18.74 -5.18,18.90 -5.39,19.00 -5.60,19.10 -5.83,19.15 -6.06,19.21 -6.30,19.20 -6.53,19.19 -6.76,19.13 -6.99,19.07 -7.19,18.96 -7.40,18.84 -7.57,18.68 -7.74,18.52 -7.87,18.32 -8.00,18.13 -8.08,17.90 -8.16,17.68 -8.18,17.45 -8.20,17.21 -8.17,16.98 -8.13,16.75 -8.04,16.53 -7.96,16.31 -7.73,16.11 -7.51,15.91 -7.05,15.12 -6.59,14.33 -5.91,12.75 -5.23,11.18 -4.56,9.27 -3.89,7.36 -3.36,5.93 -2.83,4.50 -2.56,3.58 -2.28,2.67 -1.51,1.28 -0.73,-0.10 -0.71,-0.19 -0.69,-0.27 -0.64,-0.35 -0.60,-0.43 -0.54,-0.50 -0.48,-0.56 -0.40,-0.61 -0.33,-0.66 -0.24,-0.69 -0.16,-0.72 -0.07,-0.73 0.01,-0.74 0.10,-0.73 0.19,-0.72 0.27,-0.68 0.36,-0.65 0.43,-0.60 0.50,-0.54 0.56,-0.47 0.62,-0.41 0.66,-0.33 0.70,-0.25 0.72,-0.16 0.74,-0.07 0.74,0.01 0.73,0.10 0.73,0.10 L 0.73,0.10 Z"></path></g><g transform="translate(42.133056640625 62.58135986328125) rotate(0 5.1120758056640625 -1.0954437255859375)" stroke="none"><path fill="#1e1e1e" d="M -0.48,-0.97 Q -0.48,-0.97 0.15,-1.79 0.80,-2.62 1.79,-2.88 2.78,-3.13 3.66,-3.23 4.53,-3.32 5.30,-3.35 6.08,-3.38 8.01,-3.11 9.95,-2.83 10.06,-2.82 10.16,-2.81 10.26,-2.76 10.36,-2.72 10.43,-2.64 10.51,-2.57 10.56,-2.47 10.61,-2.38 10.62,-2.27 10.64,-2.17 10.62,-2.06 10.60,-1.96 10.55,-1.87 10.50,-1.77 10.42,-1.70 10.35,-1.63 10.25,-1.58 10.15,-1.54 10.05,-1.53 9.94,-1.52 9.84,-1.54 9.73,-1.57 9.64,-1.62 9.55,-1.68 9.48,-1.76 9.42,-1.84 9.38,-1.94 9.34,-2.04 9.33,-2.15 9.33,-2.25 9.36,-2.35 9.39,-2.46 9.45,-2.54 9.51,-2.63 9.59,-2.69 9.68,-2.76 9.78,-2.79 9.88,-2.82 9.99,-2.82 10.09,-2.82 10.19,-2.79 10.29,-2.75 10.38,-2.69 10.46,-2.62 10.52,-2.53 10.58,-2.45 10.61,-2.34 10.64,-2.24 10.63,-2.13 10.62,-2.03 10.58,-1.93 10.54,-1.83 10.47,-1.75 10.40,-1.67 10.31,-1.62 10.22,-1.56 10.12,-1.54 10.01,-1.52 10.01,-1.52 10.01,-1.52 8.17,-0.48 6.34,0.55 5.63,0.59 4.93,0.63 4.30,0.68 3.67,0.74 3.11,0.84 2.55,0.94 1.52,0.95 0.48,0.97 0.36,1.01 0.23,1.06 0.10,1.07 -0.02,1.08 -0.15,1.06 -0.28,1.04 -0.40,1.00 -0.52,0.95 -0.63,0.87 -0.73,0.79 -0.82,0.69 -0.90,0.59 -0.96,0.48 -1.02,0.36 -1.05,0.23 -1.08,0.10 -1.07,-0.02 -1.07,-0.15 -1.04,-0.27 -1.00,-0.40 -0.94,-0.52 -0.88,-0.63 -0.79,-0.73 -0.70,-0.82 -0.59,-0.89 -0.48,-0.97 -0.48,-0.97 L -0.48,-0.97 Z"></path></g><g transform="translate(75.72671508789062 41.40278625488281) rotate(0 5.1120758056640625 -0.7303085327148438)" stroke="none"><path fill="#1e1e1e" d="M -0.16,-1.14 Q -0.16,-1.14 1.24,-1.77 2.65,-2.39 3.75,-2.49 4.85,-2.59 6.84,-2.34 8.83,-2.10 8.91,-2.10 8.99,-2.09 9.07,-2.07 9.15,-2.05 9.21,-2.01 9.28,-1.97 9.34,-1.92 9.40,-1.86 9.44,-1.79 9.48,-1.73 9.51,-1.65 9.53,-1.58 9.54,-1.50 9.55,-1.42 9.53,-1.34 9.52,-1.26 9.49,-1.19 9.46,-1.12 9.41,-1.05 9.37,-0.99 9.31,-0.94 9.24,-0.89 9.17,-0.86 9.10,-0.82 9.02,-0.81 8.95,-0.79 8.79,-0.82 8.63,-0.84 8.54,-0.90 8.45,-0.96 8.38,-1.04 8.32,-1.13 8.28,-1.23 8.24,-1.33 8.24,-1.43 8.24,-1.54 8.27,-1.64 8.31,-1.74 8.37,-1.83 8.43,-1.91 8.52,-1.97 8.60,-2.03 8.71,-2.06 8.81,-2.10 8.91,-2.09 9.02,-2.09 9.12,-2.05 9.22,-2.01 9.30,-1.95 9.38,-1.88 9.44,-1.79 9.50,-1.70 9.52,-1.59 9.55,-1.49 9.54,-1.39 9.53,-1.28 9.48,-1.18 9.44,-1.08 9.37,-1.01 9.30,-0.93 9.20,-0.88 9.11,-0.83 9.01,-0.81 8.90,-0.79 8.80,-0.80 8.69,-0.82 8.60,-0.87 8.50,-0.91 8.43,-0.99 8.35,-1.07 8.31,-1.16 8.26,-1.26 8.25,-1.36 8.23,-1.47 8.26,-1.57 8.28,-1.68 8.33,-1.77 8.38,-1.86 8.46,-1.93 8.54,-2.00 8.64,-2.04 8.74,-2.08 8.84,-2.09 8.95,-2.10 8.89,-2.10 8.83,-2.10 8.91,-2.10 8.99,-2.09 9.07,-2.07 9.15,-2.05 9.21,-2.01 9.28,-1.97 9.34,-1.92 9.40,-1.86 9.44,-1.79 9.48,-1.73 9.51,-1.65 9.53,-1.58 9.54,-1.50 9.55,-1.42 9.53,-1.34 9.52,-1.26 9.49,-1.19 9.46,-1.12 9.41,-1.05 9.37,-0.99 9.31,-0.94 9.24,-0.89 9.17,-0.86 9.10,-0.82 9.02,-0.81 8.95,-0.79 7.07,0.29 5.20,1.39 4.21,1.47 3.22,1.56 1.69,1.35 0.16,1.14 0.02,1.15 -0.11,1.15 -0.25,1.12 -0.38,1.09 -0.51,1.03 -0.63,0.96 -0.74,0.87 -0.85,0.78 -0.93,0.67 -1.01,0.56 -1.06,0.43 -1.12,0.30 -1.13,0.16 -1.15,0.02 -1.14,-0.11 -1.13,-0.25 -1.08,-0.38 -1.03,-0.51 -0.96,-0.63 -0.88,-0.75 -0.78,-0.84 -0.67,-0.94 -0.55,-1.00 -0.43,-1.07 -0.29,-1.11 -0.16,-1.14 -0.16,-1.14 L -0.16,-1.14 Z"></path></g><g transform="translate(73.53581237792969 33.36949157714844) rotate(0 8.763572692871094 -1.4605941772460938)" stroke="none"><path fill="#1e1e1e" d="M -0.22,-1.36 Q -0.22,-1.36 0.97,-1.88 2.18,-2.41 2.97,-2.50 3.76,-2.60 4.58,-2.82 5.39,-3.04 6.34,-3.17 7.29,-3.30 8.13,-3.36 8.96,-3.41 9.74,-3.41 10.53,-3.41 11.28,-3.40 12.03,-3.38 12.75,-3.34 13.47,-3.30 15.02,-3.28 16.57,-3.27 16.68,-3.29 16.78,-3.31 16.89,-3.29 16.99,-3.28 17.09,-3.23 17.18,-3.18 17.26,-3.11 17.33,-3.03 17.38,-2.94 17.43,-2.84 17.44,-2.74 17.46,-2.63 17.43,-2.53 17.41,-2.42 17.36,-2.33 17.31,-2.24 17.23,-2.17 17.15,-2.10 17.05,-2.06 16.96,-2.01 16.85,-2.01 16.74,-2.00 16.64,-2.02 16.54,-2.05 16.45,-2.11 16.36,-2.16 16.29,-2.25 16.23,-2.33 16.19,-2.43 16.15,-2.53 16.15,-2.63 16.15,-2.74 16.18,-2.84 16.21,-2.94 16.27,-3.03 16.34,-3.12 16.42,-3.18 16.51,-3.24 16.61,-3.27 16.71,-3.30 16.82,-3.30 16.92,-3.30 17.02,-3.26 17.12,-3.22 17.21,-3.16 17.29,-3.09 17.35,-3.00 17.40,-2.91 17.43,-2.81 17.45,-2.70 17.44,-2.60 17.44,-2.49 17.39,-2.39 17.35,-2.30 17.28,-2.22 17.21,-2.14 17.12,-2.09 17.02,-2.03 17.02,-2.03 17.02,-2.03 15.29,-0.82 13.56,0.39 12.82,0.44 12.07,0.48 11.35,0.51 10.63,0.55 9.91,0.58 9.20,0.62 8.50,0.66 7.80,0.69 7.10,0.78 6.41,0.86 5.33,1.13 4.25,1.40 3.55,1.49 2.85,1.57 1.53,1.46 0.22,1.36 0.06,1.37 -0.10,1.37 -0.26,1.34 -0.43,1.31 -0.58,1.24 -0.73,1.17 -0.86,1.06 -0.99,0.96 -1.09,0.82 -1.19,0.69 -1.26,0.54 -1.32,0.39 -1.35,0.22 -1.38,0.06 -1.36,-0.10 -1.35,-0.27 -1.30,-0.42 -1.25,-0.58 -1.16,-0.72 -1.07,-0.87 -0.95,-0.98 -0.83,-1.10 -0.69,-1.18 -0.54,-1.27 -0.38,-1.31 -0.22,-1.36 -0.22,-1.36 L -0.22,-1.36 Z"></path></g><g transform="translate(133.420166015625 12.190887451171875) rotate(0 1.0954437255859375 21.908912658691406)" stroke="none"><path fill="#1e1e1e" d="M 1.23,0 Q 1.23,0 1.60,1.67 1.96,3.35 1.97,6.80 1.98,10.24 1.98,12.75 1.99,15.27 1.99,17.39 2.00,19.50 2.00,22.50 2.01,25.50 2.01,28.25 2.02,30.99 2.02,32.58 2.02,34.16 2.02,35.26 2.02,36.35 2.02,37.45 2.02,38.54 2.02,39.22 2.02,39.89 2.01,40.57 2.00,41.25 2.23,41.83 2.46,42.41 2.53,42.65 2.59,42.88 2.60,43.13 2.61,43.37 2.55,43.61 2.50,43.85 2.40,44.06 2.29,44.28 2.13,44.47 1.97,44.66 1.78,44.80 1.58,44.94 1.36,45.04 1.13,45.13 0.89,45.17 0.65,45.20 0.41,45.18 0.16,45.16 -0.06,45.08 -0.29,45.00 -0.49,44.86 -0.69,44.73 -0.86,44.55 -1.03,44.38 -1.15,44.16 -1.27,43.95 -0.88,42.76 -0.50,41.56 0.46,39.47 1.43,37.37 1.49,37.28 1.54,37.19 1.62,37.12 1.70,37.05 1.80,37.01 1.90,36.96 2.00,36.96 2.11,36.95 2.21,36.98 2.31,37.00 2.40,37.06 2.49,37.12 2.56,37.20 2.62,37.28 2.66,37.38 2.70,37.48 2.70,37.59 2.70,37.70 2.67,37.80 2.64,37.90 2.57,37.98 2.51,38.07 2.42,38.13 2.34,38.19 2.23,38.22 2.13,38.25 2.03,38.25 1.92,38.25 1.82,38.21 1.72,38.17 1.64,38.10 1.56,38.04 1.50,37.95 1.44,37.86 1.42,37.75 1.39,37.65 1.40,37.54 1.41,37.44 1.46,37.34 1.50,37.24 1.57,37.17 1.64,37.09 1.74,37.04 1.83,36.98 1.93,36.97 2.04,36.95 2.14,36.96 2.25,36.98 2.34,37.02 2.44,37.07 2.51,37.15 2.59,37.22 2.63,37.32 2.68,37.42 2.69,37.52 2.71,37.63 2.68,37.73 2.66,37.83 2.66,37.83 2.66,37.83 2.97,39.47 3.27,41.11 3.20,41.87 3.14,42.63 2.49,43.66 1.85,44.69 2.16,43.55 2.46,42.41 2.53,42.65 2.59,42.88 2.60,43.13 2.61,43.37 2.55,43.61 2.50,43.85 2.40,44.06 2.29,44.28 2.13,44.47 1.98,44.66 1.78,44.80 1.58,44.94 1.36,45.04 1.13,45.13 0.89,45.17 0.65,45.20 0.41,45.18 0.16,45.16 -0.06,45.08 -0.29,45.00 -0.49,44.86 -0.69,44.73 -0.86,44.55 -1.03,44.38 -1.15,44.16 -1.27,43.95 -1.36,43.52 -1.45,43.09 -1.73,42.23 -2.00,41.37 -2.01,40.63 -2.02,39.89 -2.02,39.22 -2.02,38.54 -2.02,37.45 -2.02,36.35 -2.02,35.26 -2.02,34.16 -2.02,32.58 -2.02,30.99 -2.01,28.25 -2.01,25.50 -2.00,22.50 -2.00,19.50 -1.99,17.39 -1.99,15.27 -1.98,12.75 -1.98,10.24 -1.97,6.80 -1.96,3.35 -1.60,1.67 -1.23,0 -1.21,-0.14 -1.20,-0.29 -1.14,-0.43 -1.09,-0.57 -1.01,-0.69 -0.92,-0.82 -0.81,-0.91 -0.70,-1.01 -0.57,-1.08 -0.43,-1.15 -0.29,-1.19 -0.14,-1.22 0.00,-1.22 0.14,-1.22 0.29,-1.19 0.43,-1.15 0.57,-1.08 0.70,-1.01 0.81,-0.91 0.92,-0.82 1.01,-0.69 1.09,-0.57 1.14,-0.43 1.20,-0.29 1.21,-0.14 1.23,0.00 1.23,0.00 L 1.23,0 Z"></path></g><g transform="translate(180.15914916992188 41.40278625488281) rotate(0 -9.128707885742188 -8.033279418945312)" stroke="none"><path fill="#1e1e1e" d="M -1.17,0.47 Q -1.17,0.47 -1.92,-0.44 -2.66,-1.36 -3.20,-2.33 -3.75,-3.29 -4.17,-3.89 -4.59,-4.49 -4.91,-5.45 -5.22,-6.41 -5.78,-7.03 -6.34,-7.65 -6.82,-8.21 -7.30,-8.77 -7.78,-9.08 -8.25,-9.40 -8.78,-9.84 -9.31,-10.29 -9.92,-10.54 -10.54,-10.78 -11.62,-11.11 -12.69,-11.43 -13.33,-11.57 -13.96,-11.71 -14.76,-11.75 -15.55,-11.80 -16.13,-11.83 -16.72,-11.85 -17.54,-11.87 -18.36,-11.89 -18.89,-11.54 -19.42,-11.18 -20.04,-10.86 -20.67,-10.53 -21.40,-9.56 -22.13,-8.59 -22.07,-7.95 -22.00,-7.32 -22.03,-6.48 -22.05,-5.65 -22.06,-5.07 -22.07,-4.48 -22.08,-3.63 -22.09,-2.78 -21.38,-2.42 -20.68,-2.06 -20.08,-2.06 -19.47,-2.07 -18.92,-2.05 -18.37,-2.04 -17.71,-2.03 -17.05,-2.03 -16.35,-2.02 -15.65,-2.02 -14.94,-2.20 -14.23,-2.39 -13.54,-2.65 -12.85,-2.91 -12.14,-3.22 -11.44,-3.54 -10.59,-4.05 -9.74,-4.55 -9.20,-4.95 -8.67,-5.35 -8.26,-5.70 -7.84,-6.05 -6.99,-7.06 -6.14,-8.07 -5.42,-8.89 -4.69,-9.71 -3.75,-10.69 -2.80,-11.68 -1.99,-12.51 -1.17,-13.34 -0.61,-13.91 -0.04,-14.48 0.63,-14.89 1.30,-15.30 2.23,-15.91 3.16,-16.52 3.38,-15.63 3.60,-14.74 3.67,-14.77 3.75,-14.80 3.82,-14.82 3.90,-14.83 3.98,-14.82 4.06,-14.82 4.14,-14.79 4.21,-14.77 4.28,-14.73 4.34,-14.68 4.40,-14.63 4.45,-14.57 4.49,-14.50 4.53,-14.43 4.56,-14.36 4.58,-14.28 4.58,-14.20 4.59,-14.12 4.57,-14.04 4.55,-13.97 4.52,-13.90 4.49,-13.82 4.44,-13.76 4.39,-13.70 4.32,-13.65 4.26,-13.61 4.25,-13.60 4.24,-13.59 4.14,-13.56 4.04,-13.53 3.93,-13.53 3.83,-13.52 3.73,-13.56 3.63,-13.59 3.54,-13.66 3.46,-13.72 3.40,-13.81 3.34,-13.89 3.31,-14.00 3.28,-14.10 3.28,-14.21 3.29,-14.31 3.33,-14.41 3.37,-14.51 3.43,-14.59 3.50,-14.67 3.59,-14.73 3.68,-14.78 3.79,-14.81 3.89,-14.83 4.00,-14.82 4.10,-14.81 4.20,-14.76 4.30,-14.72 4.37,-14.65 4.45,-14.57 4.50,-14.48 4.55,-14.39 4.57,-14.28 4.59,-14.18 4.57,-14.07 4.55,-13.97 4.50,-13.87 4.46,-13.78 4.38,-13.71 4.30,-13.63 4.21,-13.59 4.11,-13.54 4.00,-13.53 3.90,-13.52 3.79,-13.54 3.69,-13.56 3.60,-13.62 3.51,-13.67 3.44,-13.75 3.37,-13.83 3.33,-13.93 3.29,-14.03 3.28,-14.14 3.28,-14.24 3.31,-14.34 3.33,-14.45 3.39,-14.53 3.45,-14.62 3.53,-14.68 3.60,-14.74 3.67,-14.77 3.75,-14.80 3.82,-14.82 3.90,-14.83 3.98,-14.82 4.06,-14.82 4.14,-14.79 4.21,-14.77 4.28,-14.73 4.34,-14.68 4.40,-14.63 4.45,-14.57 4.49,-14.50 4.53,-14.43 4.56,-14.36 4.58,-14.28 4.58,-14.20 4.59,-14.12 4.57,-14.04 4.55,-13.97 4.52,-13.90 4.49,-13.82 4.44,-13.76 4.39,-13.70 4.32,-13.65 4.26,-13.61 4.78,-13.37 5.31,-13.13 4.80,-12.84 4.30,-12.55 3.54,-12.08 2.78,-11.61 2.24,-11.06 1.70,-10.51 0.90,-9.69 0.10,-8.87 -0.78,-7.95 -1.67,-7.03 -2.29,-6.34 -2.91,-5.64 -3.62,-4.72 -4.34,-3.80 -4.78,-3.39 -5.23,-2.97 -5.76,-2.53 -6.29,-2.08 -6.99,-1.58 -7.68,-1.07 -8.75,-0.46 -9.81,0.15 -10.63,0.51 -11.46,0.87 -12.40,1.21 -13.34,1.54 -14.49,1.78 -15.65,2.01 -16.37,2.01 -17.09,2.01 -17.79,2.00 -18.48,1.99 -19.68,1.92 -20.89,1.85 -22.20,1.49 -23.52,1.13 -24.17,0.90 -24.82,0.67 -25.30,0.01 -25.79,-0.64 -25.94,-1.72 -26.10,-2.80 -26.09,-3.69 -26.08,-4.57 -26.06,-5.18 -26.05,-5.79 -26.01,-6.78 -25.97,-7.76 -25.85,-8.60 -25.74,-9.44 -25.04,-10.57 -24.34,-11.70 -23.56,-12.76 -22.77,-13.83 -22.17,-14.17 -21.57,-14.52 -20.90,-14.91 -20.23,-15.31 -19.31,-15.57 -18.39,-15.83 -17.46,-15.82 -16.53,-15.80 -15.90,-15.77 -15.27,-15.74 -14.19,-15.66 -13.12,-15.57 -12.32,-15.39 -11.52,-15.20 -10.21,-14.79 -8.89,-14.37 -7.84,-13.84 -6.79,-13.32 -6.35,-12.95 -5.92,-12.58 -5.12,-11.96 -4.32,-11.34 -3.77,-10.69 -3.22,-10.05 -2.28,-8.36 -1.33,-6.67 -0.82,-5.94 -0.31,-5.20 0.33,-4.01 0.98,-2.83 1.08,-1.65 1.17,-0.47 1.21,-0.32 1.25,-0.17 1.25,-0.02 1.26,0.13 1.22,0.27 1.19,0.42 1.12,0.56 1.05,0.70 0.95,0.81 0.85,0.93 0.73,1.02 0.60,1.11 0.46,1.16 0.32,1.22 0.17,1.24 0.02,1.26 -0.12,1.25 -0.28,1.23 -0.42,1.18 -0.56,1.13 -0.69,1.04 -0.82,0.96 -0.92,0.85 -1.03,0.73 -1.10,0.60 -1.17,0.47 -1.17,0.47 L -1.17,0.47 Z"></path></g><g transform="translate(207.18011474609375 35.56037902832031) rotate(0 8.763565063476562 -1.4605865478515625)" stroke="none"><path fill="#1e1e1e" d="M -0.21,-0.63 Q -0.21,-0.63 0.19,-1.48 0.61,-2.32 2.09,-2.79 3.57,-3.26 4.17,-3.49 4.78,-3.71 5.94,-3.87 7.11,-4.03 7.76,-4.08 8.42,-4.13 9.58,-4.15 10.74,-4.18 11.43,-4.19 12.11,-4.19 13.02,-4.20 13.93,-4.20 15.73,-3.55 17.52,-2.90 17.61,-2.84 17.70,-2.79 17.77,-2.70 17.84,-2.62 17.87,-2.52 17.91,-2.42 17.91,-2.32 17.92,-2.21 17.89,-2.11 17.86,-2.01 17.80,-1.92 17.73,-1.83 17.65,-1.77 17.56,-1.71 17.46,-1.68 17.36,-1.64 17.25,-1.65 17.15,-1.65 17.05,-1.68 16.95,-1.72 16.86,-1.79 16.78,-1.85 16.72,-1.94 16.66,-2.03 16.64,-2.13 16.61,-2.24 16.62,-2.34 16.63,-2.45 16.67,-2.55 16.71,-2.64 16.78,-2.72 16.85,-2.80 16.94,-2.86 17.04,-2.91 17.14,-2.93 17.24,-2.95 17.35,-2.94 17.45,-2.92 17.55,-2.88 17.65,-2.83 17.72,-2.76 17.80,-2.68 17.84,-2.59 17.89,-2.49 17.91,-2.39 17.92,-2.28 17.90,-2.18 17.88,-2.07 17.83,-1.98 17.78,-1.89 17.70,-1.81 17.62,-1.74 17.53,-1.70 17.43,-1.66 17.32,-1.65 17.22,-1.64 17.11,-1.66 17.01,-1.69 17.01,-1.69 17.01,-1.69 15.52,-0.93 14.02,-0.17 13.09,-0.16 12.16,-0.15 11.49,-0.14 10.82,-0.14 9.77,-0.12 8.73,-0.10 8.15,-0.06 7.58,-0.01 6.82,0.04 6.07,0.11 4.64,0.41 3.22,0.71 2.56,1.10 1.90,1.48 1.06,1.06 0.21,0.63 0.13,0.65 0.05,0.66 -0.02,0.66 -0.10,0.66 -0.18,0.63 -0.26,0.61 -0.33,0.57 -0.40,0.53 -0.46,0.47 -0.51,0.42 -0.56,0.35 -0.60,0.28 -0.63,0.21 -0.65,0.13 -0.66,0.05 -0.66,-0.02 -0.65,-0.10 -0.64,-0.18 -0.61,-0.26 -0.57,-0.33 -0.53,-0.39 -0.48,-0.46 -0.42,-0.51 -0.35,-0.56 -0.28,-0.60 -0.21,-0.63 -0.21,-0.63 L -0.21,-0.63 Z"></path></g><g transform="translate(276.5583190917969 37.75128173828125) rotate(0 -12.049911499023438 -2.9211959838867188)" stroke="none"><path fill="#1e1e1e" d="M -0.72,0.48 Q -0.72,0.48 -1.58,0.16 -2.44,-0.15 -3.31,-1.05 -4.18,-1.96 -4.97,-2.50 -5.76,-3.05 -6.18,-3.44 -6.61,-3.84 -7.67,-4.42 -8.73,-5.01 -9.32,-5.44 -9.92,-5.88 -10.78,-6.21 -11.63,-6.54 -12.44,-6.83 -13.26,-7.13 -14.08,-7.27 -14.91,-7.42 -15.60,-7.44 -16.28,-7.47 -16.85,-7.48 -17.41,-7.48 -18.20,-7.50 -19.00,-7.52 -19.71,-6.71 -20.42,-5.91 -21.07,-5.54 -21.71,-5.18 -22.24,-4.13 -22.76,-3.08 -22.77,-2.48 -22.79,-1.88 -22.80,-1.20 -22.81,-0.51 -22.81,0.39 -22.82,1.31 -22.49,1.92 -22.16,2.53 -21.52,2.43 -20.89,2.33 -20.35,2.34 -19.81,2.35 -18.95,2.35 -18.09,2.35 -17.56,2.18 -17.03,2.01 -16.39,1.54 -15.75,1.08 -15.06,0.43 -14.36,-0.20 -13.43,-1.12 -12.50,-2.04 -12.04,-2.50 -11.58,-2.95 -10.81,-3.48 -10.05,-4.01 -9.09,-4.86 -8.14,-5.72 -7.68,-6.16 -7.22,-6.61 -6.87,-7.12 -6.53,-7.63 -5.61,-8.16 -4.70,-8.69 -4.08,-9.18 -3.47,-9.68 -3.02,-10.10 -2.57,-10.53 -2.08,-10.28 -1.60,-10.04 -1.53,-10.08 -1.47,-10.13 -1.40,-10.16 -1.32,-10.18 -1.24,-10.20 -1.17,-10.21 -1.09,-10.20 -1.01,-10.19 -0.93,-10.16 -0.86,-10.13 -0.79,-10.09 -0.73,-10.05 -0.67,-9.99 -0.62,-9.93 -0.58,-9.86 -0.55,-9.79 -0.53,-9.71 -0.51,-9.64 -0.51,-9.56 -0.50,-9.48 -0.52,-9.40 -0.54,-9.32 -0.58,-9.25 -0.61,-9.18 -0.66,-9.12 -0.72,-9.06 -0.98,-8.98 -1.24,-8.90 -1.34,-8.93 -1.44,-8.96 -1.53,-9.02 -1.62,-9.08 -1.68,-9.17 -1.74,-9.25 -1.77,-9.35 -1.81,-9.45 -1.80,-9.56 -1.80,-9.67 -1.77,-9.77 -1.73,-9.87 -1.67,-9.95 -1.60,-10.03 -1.51,-10.09 -1.42,-10.15 -1.32,-10.18 -1.22,-10.20 -1.11,-10.20 -1.00,-10.19 -0.91,-10.15 -0.81,-10.11 -0.73,-10.04 -0.65,-9.97 -0.60,-9.87 -0.54,-9.78 -0.52,-9.68 -0.50,-9.57 -0.51,-9.47 -0.53,-9.36 -0.57,-9.27 -0.62,-9.17 -0.69,-9.10 -0.77,-9.02 -0.86,-8.97 -0.96,-8.92 -1.06,-8.91 -1.17,-8.89 -1.27,-8.91 -1.38,-8.93 -1.47,-8.98 -1.56,-9.03 -1.64,-9.11 -1.71,-9.19 -1.75,-9.29 -1.79,-9.38 -1.80,-9.49 -1.81,-9.60 -1.79,-9.70 -1.76,-9.80 -1.71,-9.89 -1.65,-9.98 -1.57,-10.05 -1.49,-10.12 -1.39,-10.16 -1.29,-10.19 -1.44,-10.11 -1.60,-10.04 -1.53,-10.08 -1.47,-10.13 -1.40,-10.16 -1.32,-10.18 -1.24,-10.20 -1.17,-10.21 -1.09,-10.20 -1.01,-10.19 -0.93,-10.16 -0.86,-10.13 -0.79,-10.09 -0.73,-10.05 -0.67,-9.99 -0.62,-9.93 -0.58,-9.86 -0.55,-9.79 -0.53,-9.71 -0.51,-9.64 -0.51,-9.56 -0.50,-9.48 -0.52,-9.40 -0.54,-9.32 -0.58,-9.25 -0.61,-9.18 -0.66,-9.12 -0.72,-9.06 -0.33,-8.28 0.05,-7.49 -0.33,-7.13 -0.73,-6.77 -1.26,-6.50 -1.80,-6.23 -2.62,-5.69 -3.44,-5.15 -3.92,-4.43 -4.40,-3.72 -4.88,-3.24 -5.37,-2.77 -6.05,-2.14 -6.72,-1.51 -7.27,-1.07 -7.82,-0.63 -8.28,-0.36 -8.74,-0.08 -9.20,0.36 -9.65,0.82 -10.23,1.40 -10.82,1.98 -11.20,2.35 -11.58,2.72 -11.98,3.11 -12.39,3.49 -12.84,3.89 -13.30,4.29 -13.87,4.71 -14.44,5.13 -15.20,5.52 -15.97,5.90 -17.02,6.15 -18.07,6.39 -18.96,6.39 -19.86,6.39 -20.46,6.38 -21.07,6.37 -21.99,6.29 -22.92,6.21 -23.54,6.00 -24.17,5.79 -24.81,5.28 -25.46,4.77 -25.89,4.02 -26.32,3.28 -26.57,2.32 -26.83,1.36 -26.83,0.77 -26.83,0.18 -26.83,-0.57 -26.82,-1.32 -26.78,-2.16 -26.74,-3.01 -26.65,-3.54 -26.56,-4.08 -26.13,-4.92 -25.70,-5.77 -25.40,-6.43 -25.09,-7.09 -24.12,-7.97 -23.14,-8.85 -22.51,-9.44 -21.88,-10.03 -21.36,-10.42 -20.85,-10.82 -20.04,-11.14 -19.23,-11.46 -18.30,-11.47 -17.38,-11.48 -16.77,-11.48 -16.17,-11.48 -15.28,-11.43 -14.40,-11.39 -13.84,-11.31 -13.27,-11.23 -12.57,-11.06 -11.87,-10.88 -10.92,-10.52 -9.96,-10.16 -9.43,-9.92 -8.91,-9.67 -7.86,-9.09 -6.81,-8.50 -6.09,-8.11 -5.38,-7.72 -4.64,-7.23 -3.90,-6.75 -3.16,-6.08 -2.43,-5.41 -1.60,-4.56 -0.78,-3.72 -0.00,-3.04 0.76,-2.36 0.74,-1.42 0.72,-0.48 0.77,-0.39 0.82,-0.29 0.84,-0.19 0.87,-0.09 0.87,0.01 0.86,0.11 0.84,0.22 0.81,0.32 0.76,0.41 0.71,0.50 0.64,0.58 0.57,0.66 0.48,0.72 0.39,0.78 0.29,0.81 0.19,0.85 0.09,0.86 -0.01,0.87 -0.11,0.86 -0.22,0.84 -0.32,0.80 -0.42,0.77 -0.50,0.70 -0.59,0.64 -0.66,0.56 -0.72,0.48 -0.72,0.48 L -0.72,0.48 Z"></path></g><g transform="translate(266.33416748046875 17.302963256835938) rotate(0 -2.5560455322265625 -1.8257369995117188)" stroke="none"><path fill="#1e1e1e" d="M -0.43,0.86 Q -0.43,0.86 -1.01,1.00 -1.60,1.14 -2.42,0.57 -3.24,0.00 -3.83,-0.52 -4.41,-1.05 -4.41,-2.01 -4.40,-2.96 -3.82,-3.77 -3.24,-4.58 -2.06,-4.77 -0.88,-4.97 -0.24,-4.67 0.40,-4.38 0.70,-3.71 1.01,-3.05 0.92,-2.24 0.84,-1.43 0.23,-0.60 -0.38,0.22 -1.02,0.52 -1.67,0.82 -2.23,0.94 -2.78,1.05 -3.92,0.66 -5.06,0.26 -5.51,-0.31 -5.95,-0.90 -6.05,-1.57 -6.15,-2.24 -5.82,-3.16 -5.49,-4.09 -4.87,-4.59 -4.24,-5.10 -3.65,-5.25 -3.05,-5.41 -2.20,-5.27 -1.36,-5.14 -0.75,-4.70 -0.15,-4.27 0.06,-3.64 0.27,-3.01 0.17,-1.81 0.07,-0.61 -0.35,-0.02 -0.77,0.57 -1.65,1.10 -2.54,1.62 -3.06,1.71 -3.59,1.81 -4.70,1.40 -5.80,0.99 -6.23,0.19 -6.65,-0.59 -6.26,-1.93 -5.86,-3.27 -5.23,-3.92 -4.59,-4.58 -3.31,-4.89 -2.03,-5.20 -1.16,-4.90 -0.29,-4.61 0.20,-4.01 0.70,-3.41 0.71,-2.42 0.73,-1.43 0.17,-0.62 -0.38,0.19 -1.03,0.50 -1.67,0.82 -2.23,0.94 -2.78,1.05 -2.56,0.18 -2.33,-0.68 -2.41,-0.67 -2.49,-0.67 -2.57,-0.69 -2.65,-0.70 -2.72,-0.73 -2.79,-0.77 -2.85,-0.82 -2.91,-0.87 -2.96,-0.93 -3.01,-0.99 -3.04,-1.07 -3.07,-1.14 -3.09,-1.22 -3.10,-1.29 -3.09,-1.37 -3.09,-1.45 -3.06,-1.53 -3.04,-1.60 -3.00,-1.67 -2.96,-1.74 -2.90,-1.79 -2.84,-1.85 -2.77,-1.89 -2.71,-1.93 -2.63,-1.95 -2.55,-1.97 -2.55,-1.97 -2.54,-1.97 -2.43,-1.97 -2.33,-1.97 -2.23,-1.93 -2.13,-1.90 -2.04,-1.83 -1.96,-1.77 -1.90,-1.68 -1.84,-1.59 -1.82,-1.49 -1.79,-1.38 -1.80,-1.28 -1.81,-1.17 -1.85,-1.07 -1.89,-0.98 -1.96,-0.90 -2.03,-0.82 -2.12,-0.76 -2.21,-0.71 -2.32,-0.69 -2.42,-0.67 -2.53,-0.68 -2.63,-0.70 -2.73,-0.74 -2.82,-0.79 -2.90,-0.86 -2.97,-0.94 -3.02,-1.03 -3.07,-1.13 -3.09,-1.23 -3.10,-1.34 -3.08,-1.44 -3.06,-1.55 -3.01,-1.64 -2.96,-1.73 -2.88,-1.80 -2.80,-1.88 -2.70,-1.92 -2.61,-1.96 -2.50,-1.97 -2.40,-1.98 -2.29,-1.95 -2.19,-1.93 -2.10,-1.87 -2.01,-1.82 -1.94,-1.73 -1.88,-1.65 -1.84,-1.55 -1.80,-1.45 -1.80,-1.35 -1.79,-1.24 -1.82,-1.14 -1.85,-1.04 -1.92,-0.95 -1.98,-0.86 -2.06,-0.80 -2.15,-0.74 -2.24,-0.71 -2.33,-0.68 -2.41,-0.67 -2.49,-0.67 -2.57,-0.69 -2.65,-0.70 -2.72,-0.73 -2.79,-0.77 -2.85,-0.82 -2.91,-0.87 -2.96,-0.93 -3.01,-0.99 -3.04,-1.07 -3.07,-1.14 -3.09,-1.22 -3.10,-1.29 -3.09,-1.37 -3.09,-1.45 -3.06,-1.53 -3.04,-1.60 -3.00,-1.67 -2.96,-1.74 -2.90,-1.79 -2.84,-1.85 -2.77,-1.89 -2.71,-1.93 -2.63,-1.95 -2.55,-1.97 -2.69,-2.33 -2.82,-2.68 -2.57,-2.19 -2.31,-1.70 -2.83,-1.38 -3.35,-1.05 -3.37,-1.64 -3.38,-2.23 -2.91,-1.98 -2.44,-1.73 -2.73,-2.22 -3.03,-2.72 -2.68,-2.31 -2.33,-1.89 -1.59,-1.80 -0.85,-1.70 -1.22,-2.20 -1.60,-2.70 -0.83,-2.34 -0.07,-1.98 0.17,-1.42 0.43,-0.86 0.52,-0.80 0.62,-0.73 0.70,-0.65 0.78,-0.56 0.84,-0.46 0.89,-0.36 0.92,-0.24 0.95,-0.13 0.95,-0.01 0.96,0.09 0.93,0.21 0.91,0.32 0.85,0.42 0.80,0.53 0.73,0.62 0.65,0.71 0.56,0.77 0.46,0.84 0.35,0.89 0.24,0.93 0.13,0.95 0.01,0.96 -0.09,0.95 -0.21,0.94 -0.32,0.90 -0.43,0.86 -0.43,0.86 L -0.43,0.86 Z"></path></g><g transform="translate(294.0854187011719 10) rotate(0 -1.8257293701171875 21.178619384765625)" stroke="none"><path fill="#1e1e1e" d="M 1.07,0.15 Q 1.07,0.15 1.26,1.67 1.44,3.20 1.37,4.39 1.29,5.58 1.04,7.05 0.78,8.53 0.71,10.67 0.63,12.81 0.60,14.79 0.56,16.78 0.34,19.39 0.12,21.99 -0.19,23.78 -0.51,25.57 -0.62,27.05 -0.74,28.52 -1.01,30.30 -1.28,32.09 -1.39,33.78 -1.49,35.47 -1.53,36.42 -1.58,37.37 -1.59,37.98 -1.60,38.58 -1.60,39.45 -1.61,40.32 -2.30,40.04 -2.99,39.75 -3.00,39.83 -3.01,39.91 -3.04,39.98 -3.07,40.06 -3.11,40.12 -3.16,40.19 -3.22,40.24 -3.28,40.29 -3.35,40.33 -3.42,40.36 -3.50,40.38 -3.57,40.40 -3.65,40.40 -3.73,40.40 -3.81,40.38 -3.89,40.36 -3.95,40.32 -4.02,40.28 -4.08,40.23 -4.14,40.18 -4.19,40.11 -4.23,40.05 -4.26,39.97 -4.29,39.90 -4.29,39.82 -4.30,39.74 -4.29,39.64 -4.27,39.54 -4.22,39.44 -4.17,39.35 -4.09,39.28 -4.02,39.20 -3.92,39.16 -3.82,39.11 -3.72,39.10 -3.61,39.09 -3.51,39.11 -3.40,39.14 -3.31,39.19 -3.22,39.25 -3.15,39.33 -3.08,39.41 -3.04,39.51 -3.01,39.60 -3.00,39.71 -2.99,39.82 -3.02,39.92 -3.05,40.02 -3.11,40.11 -3.17,40.20 -3.25,40.26 -3.34,40.33 -3.44,40.36 -3.54,40.39 -3.65,40.39 -3.75,40.39 -3.85,40.36 -3.95,40.33 -4.04,40.26 -4.12,40.20 -4.18,40.11 -4.24,40.02 -4.27,39.92 -4.30,39.82 -4.29,39.71 -4.29,39.61 -4.25,39.51 -4.21,39.41 -4.14,39.33 -4.07,39.25 -3.98,39.19 -3.89,39.14 -3.79,39.11 -3.68,39.09 -3.58,39.10 -3.47,39.11 -3.37,39.16 -3.28,39.20 -3.20,39.28 -3.12,39.35 -3.07,39.44 -3.02,39.54 -3.01,39.64 -2.99,39.75 -2.99,39.75 -2.99,39.75 -3.00,39.83 -3.01,39.91 -3.04,39.98 -3.07,40.06 -3.11,40.12 -3.16,40.19 -3.22,40.24 -3.28,40.29 -3.35,40.33 -3.42,40.36 -3.50,40.38 -3.57,40.40 -3.65,40.40 -3.73,40.40 -3.81,40.38 -3.89,40.36 -3.95,40.32 -4.02,40.28 -4.08,40.23 -4.14,40.18 -4.19,40.11 -4.23,40.05 -4.26,39.97 -4.29,39.90 -4.29,39.82 -4.30,39.74 -4.98,40.01 -5.65,40.28 -5.65,39.36 -5.64,38.45 -5.60,37.81 -5.57,37.17 -5.52,36.19 -5.47,35.21 -5.35,33.35 -5.22,31.48 -4.96,29.83 -4.70,28.19 -4.56,26.53 -4.42,24.87 -4.12,23.25 -3.82,21.63 -3.59,19.16 -3.35,16.70 -3.30,14.66 -3.24,12.63 -3.11,10.24 -2.97,7.85 -2.73,6.58 -2.49,5.31 -2.39,3.99 -2.28,2.67 -1.68,1.25 -1.07,-0.15 -1.04,-0.28 -1.00,-0.40 -0.94,-0.52 -0.88,-0.63 -0.79,-0.73 -0.70,-0.82 -0.59,-0.90 -0.48,-0.97 -0.36,-1.01 -0.23,-1.06 -0.10,-1.07 0.02,-1.08 0.15,-1.06 0.28,-1.05 0.40,-1.00 0.52,-0.95 0.63,-0.87 0.73,-0.79 0.82,-0.69 0.90,-0.59 0.96,-0.48 1.02,-0.36 1.05,-0.23 1.08,-0.10 1.08,0.02 1.07,0.15 1.07,0.15 L 1.07,0.15 Z"></path></g><g transform="translate(15.112075805664062 120.27481079101562) rotate(0 9.8590087890625 16.431671142578125)" stroke="none"><path fill="#1e1e1e" d="M 1.22,0.24 Q 1.22,0.24 1.35,1.36 1.47,2.47 1.18,3.97 0.89,5.47 0.79,6.84 0.68,8.21 0.42,11.15 0.17,14.09 0.06,15.94 -0.04,17.79 -0.07,19.81 -0.11,21.83 -0.13,23.31 -0.15,24.78 0.21,25.74 0.58,26.70 0.90,27.30 1.22,27.90 1.66,28.45 2.11,29.00 2.88,29.26 3.65,29.53 4.67,29.94 5.69,30.34 6.41,30.47 7.13,30.61 8.01,30.67 8.89,30.73 10.31,30.76 11.73,30.79 13.71,30.60 15.69,30.41 18.28,30.61 20.86,30.81 20.97,30.79 21.07,30.77 21.18,30.79 21.28,30.81 21.38,30.86 21.47,30.91 21.54,30.98 21.62,31.06 21.66,31.16 21.71,31.25 21.72,31.36 21.73,31.46 21.71,31.57 21.69,31.67 21.63,31.76 21.58,31.85 21.50,31.92 21.42,31.99 21.32,32.03 21.22,32.07 21.12,32.08 21.01,32.08 20.91,32.06 20.80,32.03 20.72,31.97 20.63,31.91 20.56,31.83 20.50,31.74 20.46,31.64 20.43,31.54 20.43,31.43 20.43,31.33 20.46,31.23 20.49,31.13 20.56,31.04 20.62,30.96 20.71,30.90 20.80,30.84 20.90,30.81 21.00,30.78 21.11,30.78 21.21,30.79 21.31,30.83 21.41,30.87 21.49,30.93 21.57,31.00 21.63,31.09 21.69,31.18 21.71,31.29 21.73,31.39 21.72,31.50 21.71,31.60 21.67,31.70 21.62,31.80 21.55,31.87 21.48,31.95 21.38,32.00 21.29,32.05 21.29,32.05 21.29,32.05 18.68,33.24 16.07,34.43 13.86,34.63 11.64,34.83 10.11,34.79 8.58,34.76 7.44,34.66 6.31,34.57 5.26,34.33 4.21,34.10 3.05,33.64 1.89,33.17 0.49,32.40 -0.91,31.62 -1.63,30.69 -2.36,29.76 -2.81,28.86 -3.25,27.96 -3.71,26.38 -4.16,24.80 -4.14,23.27 -4.12,21.74 -4.06,19.64 -4.00,17.55 -3.89,15.64 -3.77,13.73 -3.49,10.80 -3.22,7.87 -3.08,6.29 -2.93,4.70 -2.62,3.21 -2.31,1.71 -1.77,0.73 -1.22,-0.24 -1.17,-0.38 -1.13,-0.53 -1.05,-0.65 -0.97,-0.78 -0.86,-0.89 -0.75,-0.99 -0.62,-1.07 -0.49,-1.14 -0.34,-1.18 -0.20,-1.23 -0.05,-1.23 0.09,-1.24 0.24,-1.21 0.39,-1.18 0.52,-1.12 0.66,-1.05 0.78,-0.96 0.89,-0.86 0.98,-0.74 1.07,-0.62 1.13,-0.49 1.19,-0.35 1.22,-0.20 1.24,-0.05 1.23,0.09 1.22,0.24 1.22,0.24 L 1.22,0.24 Z"></path></g><g transform="translate(18.03326416015625 136.34136962890625) rotate(0 5.477226257324219 -1.095458984375)" stroke="none"><path fill="#1e1e1e" d="M 0,-1.40 Q 0,-1.40 1.04,-1.66 2.09,-1.92 3.17,-1.92 4.25,-1.91 5.33,-1.90 6.42,-1.90 7.09,-1.89 7.77,-1.89 8.66,-1.88 9.56,-1.87 9.58,-1.98 9.60,-2.08 9.65,-2.18 9.70,-2.27 9.78,-2.34 9.85,-2.41 9.95,-2.46 10.05,-2.50 10.15,-2.51 10.26,-2.52 10.36,-2.50 10.47,-2.47 10.56,-2.42 10.65,-2.36 10.71,-2.28 10.78,-2.20 10.82,-2.10 10.86,-2.00 10.86,-1.89 10.87,-1.79 10.84,-1.68 10.81,-1.58 10.75,-1.50 10.69,-1.41 10.60,-1.34 10.51,-1.28 10.41,-1.25 10.31,-1.22 10.21,-1.22 10.10,-1.22 10.00,-1.25 9.90,-1.29 9.82,-1.36 9.73,-1.42 9.67,-1.51 9.62,-1.60 9.59,-1.70 9.56,-1.80 9.57,-1.91 9.58,-2.02 9.62,-2.11 9.66,-2.21 9.73,-2.29 9.80,-2.37 9.89,-2.43 9.98,-2.48 10.08,-2.50 10.19,-2.52 10.29,-2.51 10.40,-2.50 10.49,-2.45 10.59,-2.40 10.67,-2.33 10.74,-2.26 10.79,-2.16 10.84,-2.07 10.86,-1.96 10.87,-1.86 10.87,-1.86 10.87,-1.86 9.32,0.01 7.77,1.89 7.09,1.89 6.42,1.90 5.33,1.90 4.25,1.91 3.17,1.92 2.09,1.92 1.04,1.66 0,1.40 -0.16,1.38 -0.33,1.36 -0.49,1.30 -0.65,1.24 -0.79,1.15 -0.93,1.05 -1.04,0.92 -1.15,0.80 -1.23,0.64 -1.31,0.49 -1.35,0.33 -1.39,0.16 -1.39,-0.00 -1.39,-0.16 -1.35,-0.33 -1.31,-0.49 -1.23,-0.64 -1.15,-0.80 -1.04,-0.92 -0.93,-1.05 -0.79,-1.15 -0.65,-1.24 -0.49,-1.30 -0.33,-1.36 -0.16,-1.38 0.00,-1.40 0.00,-1.40 L 0,-1.40 Z"></path></g><g transform="translate(13.6514892578125 121.00509643554688) rotate(0 12.780189514160156 1.460601806640625)" stroke="none"><path fill="#1e1e1e" d="M 0,-1.15 Q 0,-1.15 1.25,-1.59 2.51,-2.02 3.68,-2.02 4.85,-2.02 5.97,-2.02 7.10,-2.02 8.41,-2.02 9.73,-2.02 11.55,-2.02 13.37,-2.02 15.82,-2.02 18.28,-2.02 19.53,-2.02 20.79,-2.02 22.15,-1.78 23.51,-1.54 24.66,0.31 25.81,2.17 25.86,2.27 25.91,2.36 25.93,2.46 25.95,2.57 25.93,2.67 25.91,2.78 25.87,2.87 25.82,2.97 25.74,3.04 25.66,3.11 25.57,3.16 25.47,3.20 25.36,3.22 25.26,3.23 25.16,3.21 25.05,3.18 24.96,3.13 24.87,3.07 24.80,2.99 24.73,2.91 24.69,2.82 24.65,2.72 24.64,2.61 24.64,2.50 24.67,2.40 24.69,2.30 24.75,2.21 24.81,2.12 24.90,2.06 24.98,1.99 25.08,1.96 25.18,1.92 25.29,1.92 25.39,1.92 25.50,1.96 25.60,1.99 25.68,2.05 25.77,2.12 25.83,2.21 25.89,2.29 25.92,2.40 25.94,2.50 25.94,2.60 25.93,2.71 25.89,2.81 25.86,2.91 25.79,2.99 25.72,3.07 25.63,3.13 25.54,3.18 25.43,3.20 25.33,3.23 25.22,3.22 25.12,3.21 25.02,3.16 24.93,3.12 24.85,3.04 24.77,2.97 24.77,2.97 24.77,2.97 23.74,2.67 22.70,2.38 21.74,2.20 20.78,2.02 19.53,2.02 18.28,2.02 15.82,2.02 13.37,2.02 11.55,2.02 9.73,2.02 8.41,2.02 7.10,2.02 5.97,2.02 4.85,2.02 3.68,2.02 2.51,2.02 1.25,1.59 0,1.15 -0.13,1.14 -0.27,1.12 -0.40,1.07 -0.53,1.02 -0.65,0.94 -0.76,0.86 -0.86,0.76 -0.95,0.65 -1.01,0.53 -1.08,0.41 -1.11,0.27 -1.15,0.13 -1.15,-0.00 -1.15,-0.13 -1.11,-0.27 -1.08,-0.41 -1.01,-0.53 -0.95,-0.65 -0.86,-0.76 -0.76,-0.86 -0.65,-0.94 -0.53,-1.02 -0.40,-1.07 -0.27,-1.12 -0.13,-1.14 0.00,-1.15 0.00,-1.15 L 0,-1.15 Z"></path></g><g transform="translate(47.975433349609375 148.75637817382812) rotate(0 4.7469329833984375 10.224166870117188)" stroke="none"><path fill="#1e1e1e" d="M 1.27,0.25 Q 1.27,0.25 1.33,1.35 1.39,2.45 1.31,3.83 1.24,5.20 1.21,6.44 1.18,7.67 0.96,9.56 0.74,11.45 0.65,12.59 0.57,13.73 0.54,14.62 0.50,15.51 0.49,16.30 0.48,17.09 0.47,17.85 0.47,18.60 0.47,19.14 0.46,19.67 0.43,19.90 0.40,20.13 0.32,20.35 0.24,20.56 0.10,20.75 -0.02,20.94 -0.20,21.10 -0.37,21.25 -0.58,21.35 -0.79,21.46 -1.01,21.51 -1.24,21.57 -1.47,21.56 -1.70,21.56 -1.93,21.50 -2.15,21.45 -2.36,21.34 -2.56,21.23 -2.73,21.07 -2.90,20.92 -3.03,20.72 -3.16,20.53 -3.24,20.31 -3.33,20.09 -3.35,19.86 -3.38,19.63 -3.54,19.00 -3.70,18.37 -3.82,16.82 -3.95,15.26 -3.99,14.03 -4.03,12.79 -3.83,10.28 -3.64,7.77 -3.33,6.21 -3.02,4.65 -2.38,3.37 -1.75,2.09 -1.24,1.34 -0.73,0.58 -0.06,0.06 0.60,-0.45 1.78,-0.69 2.97,-0.93 4.09,-0.72 5.21,-0.50 6.12,0.18 7.03,0.88 7.44,1.55 7.85,2.22 8.06,3.55 8.26,4.89 8.31,5.58 8.35,6.26 8.13,7.27 7.90,8.27 7.29,9.26 6.67,10.25 5.97,11.07 5.28,11.88 4.60,12.36 3.93,12.83 2.77,13.41 1.61,13.98 0.63,13.74 -0.34,13.49 -0.88,12.89 -1.41,12.28 -1.38,11.15 -1.34,10.02 0.18,9.60 1.71,9.18 2.29,9.75 2.88,10.32 3.76,11.44 4.65,12.56 5.27,13.50 5.89,14.45 6.37,15.28 6.86,16.12 7.20,16.57 7.55,17.02 7.95,17.64 8.34,18.26 8.46,17.21 8.58,16.16 9.69,14.01 10.80,11.87 10.84,11.77 10.88,11.67 10.95,11.59 11.02,11.51 11.11,11.46 11.20,11.40 11.30,11.38 11.41,11.36 11.51,11.37 11.62,11.38 11.71,11.43 11.81,11.47 11.89,11.55 11.96,11.62 12.01,11.71 12.06,11.81 12.08,11.91 12.10,12.02 12.08,12.12 12.06,12.23 12.01,12.32 11.96,12.41 11.88,12.49 11.81,12.56 11.71,12.60 11.61,12.65 11.51,12.66 11.40,12.67 11.30,12.65 11.19,12.62 11.10,12.57 11.01,12.51 10.94,12.43 10.88,12.35 10.84,12.25 10.80,12.15 10.79,12.05 10.79,11.94 10.82,11.84 10.85,11.74 10.91,11.65 10.97,11.56 11.05,11.50 11.14,11.43 11.24,11.40 11.34,11.37 11.44,11.37 11.55,11.37 11.65,11.40 11.75,11.44 11.83,11.50 11.92,11.57 11.98,11.65 12.04,11.74 12.07,11.84 12.09,11.95 12.09,12.05 12.08,12.16 12.08,12.16 12.08,12.16 12.10,14.85 12.12,17.54 11.53,18.89 10.94,20.24 10.00,20.94 9.06,21.63 7.84,21.54 6.62,21.45 5.93,20.89 5.24,20.34 4.82,19.84 4.40,19.33 3.94,18.68 3.49,18.04 3.07,17.29 2.65,16.53 2.14,15.72 1.62,14.91 0.82,13.86 0.02,12.81 -0.37,12.24 -0.78,11.67 0.38,11.53 1.54,11.38 1.21,10.90 0.88,10.41 1.65,9.87 2.43,9.34 3.00,8.71 3.57,8.07 4.12,7.25 4.66,6.43 4.63,5.83 4.59,5.24 4.56,4.38 4.53,3.51 3.98,3.13 3.43,2.74 2.88,2.76 2.34,2.79 1.97,3.33 1.60,3.87 1.15,4.66 0.69,5.45 0.42,6.76 0.15,8.08 -0.04,10.38 -0.23,12.67 -0.19,13.84 -0.16,15.01 -0.10,16.16 -0.05,17.31 0.20,18.49 0.46,19.67 0.43,19.90 0.40,20.13 0.32,20.35 0.24,20.56 0.10,20.75 -0.02,20.94 -0.20,21.10 -0.37,21.25 -0.58,21.35 -0.79,21.46 -1.01,21.51 -1.24,21.57 -1.47,21.56 -1.70,21.56 -1.93,21.50 -2.15,21.45 -2.36,21.34 -2.56,21.23 -2.73,21.07 -2.90,20.92 -3.03,20.72 -3.16,20.53 -3.24,20.31 -3.33,20.10 -3.35,19.86 -3.38,19.63 -3.37,19.10 -3.37,18.56 -3.36,17.79 -3.35,17.01 -3.32,16.18 -3.30,15.34 -3.25,14.39 -3.21,13.43 -3.10,12.20 -2.99,10.98 -2.76,9.27 -2.53,7.56 -2.48,6.27 -2.44,4.98 -2.33,3.36 -2.23,1.74 -1.75,0.74 -1.27,-0.25 -1.23,-0.40 -1.18,-0.55 -1.09,-0.68 -1.01,-0.82 -0.90,-0.93 -0.78,-1.03 -0.65,-1.11 -0.51,-1.19 -0.36,-1.24 -0.21,-1.28 -0.05,-1.29 0.09,-1.30 0.25,-1.27 0.40,-1.23 0.55,-1.17 0.69,-1.10 0.81,-1.00 0.93,-0.90 1.03,-0.78 1.12,-0.65 1.18,-0.51 1.25,-0.36 1.27,-0.21 1.30,-0.05 1.29,0.09 1.27,0.25 1.27,0.25 L 1.27,0.25 Z"></path></g><g transform="translate(71.34492492675781 142.91400146484375) rotate(0 4.7469329833984375 -0.365142822265625)" stroke="none"><path fill="#1e1e1e" d="M 0,-1.37 Q 0,-1.37 0.62,-1.69 1.25,-2.02 1.94,-2.02 2.63,-2.02 3.98,-2.02 5.32,-2.02 5.89,-2.02 6.46,-2.02 7.35,-1.67 8.24,-1.33 8.31,-1.32 8.39,-1.31 8.47,-1.28 8.54,-1.25 8.61,-1.21 8.67,-1.16 8.72,-1.10 8.78,-1.04 8.81,-0.97 8.85,-0.90 8.87,-0.83 8.89,-0.75 8.89,-0.67 8.89,-0.59 8.87,-0.51 8.85,-0.44 8.81,-0.37 8.78,-0.30 8.72,-0.24 8.67,-0.18 8.61,-0.13 8.54,-0.09 8.47,-0.06 8.39,-0.03 8.31,-0.02 8.24,-0.01 8.05,-0.07 7.87,-0.12 7.79,-0.20 7.72,-0.27 7.67,-0.36 7.62,-0.45 7.60,-0.56 7.58,-0.66 7.60,-0.77 7.61,-0.87 7.66,-0.97 7.71,-1.06 7.79,-1.14 7.86,-1.21 7.96,-1.26 8.06,-1.30 8.16,-1.31 8.27,-1.33 8.37,-1.30 8.47,-1.28 8.57,-1.23 8.66,-1.17 8.73,-1.09 8.80,-1.01 8.84,-0.91 8.88,-0.82 8.88,-0.71 8.89,-0.60 8.86,-0.50 8.83,-0.40 8.78,-0.31 8.72,-0.22 8.63,-0.16 8.55,-0.09 8.45,-0.06 8.35,-0.02 8.24,-0.02 8.13,-0.02 8.03,-0.05 7.93,-0.09 7.85,-0.15 7.76,-0.21 7.70,-0.30 7.64,-0.39 7.61,-0.49 7.58,-0.59 7.59,-0.70 7.59,-0.81 7.63,-0.90 7.67,-1.00 7.74,-1.09 7.81,-1.17 7.90,-1.22 7.99,-1.28 8.09,-1.30 8.20,-1.32 8.30,-1.31 8.41,-1.30 8.32,-1.31 8.24,-1.33 8.31,-1.32 8.39,-1.31 8.47,-1.28 8.54,-1.25 8.61,-1.21 8.67,-1.16 8.72,-1.10 8.78,-1.04 8.81,-0.97 8.85,-0.90 8.87,-0.83 8.89,-0.75 8.89,-0.67 8.89,-0.59 8.87,-0.51 8.85,-0.44 8.81,-0.37 8.78,-0.30 8.72,-0.24 8.67,-0.18 8.61,-0.13 8.54,-0.09 8.47,-0.06 8.39,-0.03 8.31,-0.02 8.24,-0.01 7.35,1.00 6.46,2.02 5.89,2.02 5.32,2.02 3.98,2.02 2.63,2.02 1.94,2.02 1.25,2.02 0.62,1.69 0,1.37 -0.16,1.35 -0.32,1.33 -0.48,1.27 -0.63,1.21 -0.77,1.12 -0.91,1.02 -1.02,0.90 -1.13,0.78 -1.20,0.63 -1.28,0.48 -1.32,0.32 -1.36,0.16 -1.36,-0.00 -1.36,-0.16 -1.32,-0.32 -1.28,-0.48 -1.20,-0.63 -1.13,-0.78 -1.02,-0.90 -0.91,-1.02 -0.77,-1.12 -0.63,-1.21 -0.48,-1.27 -0.32,-1.33 -0.16,-1.35 0.00,-1.37 0.00,-1.37 L 0,-1.37 Z"></path></g><g transform="translate(69.88433837890625 134.8807373046875) rotate(0 5.477226257324219 0.36517333984375)" stroke="none"><path fill="#1e1e1e" d="M -0.27,-1.38 Q -0.27,-1.38 0.71,-1.89 1.70,-2.40 3.11,-2.50 4.53,-2.61 5.30,-2.65 6.08,-2.69 6.63,-2.70 7.18,-2.72 9.36,-0.84 11.54,1.03 11.54,1.13 11.54,1.24 11.51,1.34 11.48,1.44 11.41,1.53 11.35,1.61 11.26,1.67 11.17,1.73 11.07,1.76 10.97,1.79 10.86,1.78 10.76,1.78 10.66,1.74 10.56,1.70 10.48,1.63 10.40,1.56 10.34,1.47 10.29,1.38 10.26,1.28 10.24,1.17 10.25,1.07 10.26,0.96 10.31,0.86 10.35,0.77 10.43,0.69 10.50,0.61 10.59,0.56 10.69,0.51 10.79,0.50 10.90,0.48 11.00,0.50 11.11,0.51 11.20,0.56 11.29,0.61 11.37,0.69 11.44,0.77 11.48,0.86 11.53,0.96 11.54,1.06 11.55,1.17 11.53,1.27 11.51,1.38 11.45,1.47 11.40,1.56 11.32,1.63 11.24,1.70 11.14,1.74 11.04,1.78 10.93,1.78 10.83,1.79 10.72,1.76 10.62,1.73 10.53,1.67 10.45,1.61 10.38,1.53 10.32,1.44 10.28,1.34 10.25,1.24 10.25,1.24 10.25,1.24 9.20,1.27 8.15,1.30 7.21,1.32 6.28,1.34 5.54,1.38 4.81,1.41 3.65,1.48 2.49,1.56 1.38,1.47 0.27,1.38 0.10,1.39 -0.06,1.40 -0.22,1.37 -0.39,1.35 -0.55,1.28 -0.70,1.21 -0.84,1.11 -0.97,1.01 -1.08,0.88 -1.19,0.74 -1.26,0.59 -1.33,0.44 -1.37,0.27 -1.40,0.10 -1.39,-0.06 -1.38,-0.23 -1.34,-0.39 -1.29,-0.55 -1.20,-0.70 -1.12,-0.85 -1.00,-0.97 -0.88,-1.09 -0.74,-1.18 -0.59,-1.27 -0.43,-1.32 -0.27,-1.38 -0.27,-1.38 L -0.27,-1.38 Z"></path></g><g transform="translate(150.21697998046875 115.1627197265625) rotate(0 -8.398422241210938 -2.1908721923828125)" stroke="none"><path fill="#1e1e1e" d="M -0.91,0.61 Q -0.91,0.61 -1.64,0.18 -2.36,-0.24 -3.45,-1.42 -4.54,-2.60 -5.29,-3.37 -6.04,-4.14 -6.47,-4.82 -6.89,-5.49 -7.48,-5.72 -8.08,-5.94 -8.64,-6.35 -9.19,-6.75 -9.73,-6.77 -10.27,-6.79 -10.88,-6.80 -11.49,-6.82 -12.18,-6.83 -12.86,-6.83 -13.69,-6.67 -14.53,-6.52 -15.08,-6.42 -15.63,-6.32 -16.09,-5.83 -16.55,-5.33 -17.08,-4.87 -17.61,-4.40 -17.91,-3.93 -18.21,-3.46 -18.51,-2.73 -18.81,-2.00 -18.92,-1.39 -19.03,-0.78 -19.17,0.09 -19.31,0.96 -18.41,1.43 -17.51,1.90 -16.56,2.46 -15.62,3.01 -14.80,3.04 -13.98,3.06 -12.91,3.08 -11.85,3.10 -10.94,2.92 -10.03,2.73 -9.22,2.25 -8.41,1.77 -7.15,1.17 -5.88,0.57 -5.61,0.10 -5.33,-0.35 -4.48,-1.42 -3.62,-2.48 -2.56,-3.64 -1.50,-4.80 -0.85,-5.50 -0.20,-6.19 0.41,-7.03 1.04,-7.86 2.44,-7.87 3.84,-7.88 3.90,-7.94 3.95,-8.00 4.02,-8.04 4.09,-8.08 4.16,-8.11 4.24,-8.13 4.31,-8.14 4.39,-8.14 4.47,-8.13 4.55,-8.12 4.62,-8.09 4.70,-8.06 4.76,-8.01 4.82,-7.96 4.87,-7.90 4.92,-7.84 4.96,-7.77 4.99,-7.69 5.01,-7.62 5.02,-7.54 5.02,-7.46 5.01,-7.38 4.99,-7.31 4.97,-7.23 4.93,-7.16 4.89,-7.09 4.95,-7.20 5.00,-7.31 4.95,-7.22 4.91,-7.12 4.84,-7.04 4.76,-6.96 4.67,-6.91 4.58,-6.87 4.47,-6.85 4.37,-6.83 4.26,-6.85 4.16,-6.86 4.06,-6.91 3.97,-6.96 3.90,-7.04 3.82,-7.12 3.78,-7.22 3.73,-7.31 3.72,-7.42 3.71,-7.52 3.73,-7.63 3.76,-7.73 3.81,-7.82 3.87,-7.91 3.95,-7.98 4.03,-8.05 4.13,-8.09 4.23,-8.13 4.33,-8.13 4.44,-8.14 4.54,-8.11 4.64,-8.08 4.73,-8.02 4.82,-7.96 4.88,-7.88 4.95,-7.80 4.98,-7.69 5.01,-7.59 5.01,-7.49 5.01,-7.38 4.98,-7.28 4.95,-7.18 4.88,-7.10 4.82,-7.01 4.73,-6.95 4.64,-6.89 4.54,-6.86 4.44,-6.83 4.33,-6.84 4.23,-6.85 4.13,-6.89 4.03,-6.92 3.95,-6.99 3.87,-7.06 3.81,-7.15 3.76,-7.24 3.73,-7.35 3.71,-7.45 3.78,-7.67 3.84,-7.88 3.90,-7.94 3.95,-8.00 4.02,-8.04 4.09,-8.08 4.16,-8.11 4.24,-8.13 4.31,-8.14 4.39,-8.14 4.47,-8.13 4.55,-8.12 4.62,-8.09 4.70,-8.06 4.76,-8.01 4.82,-7.96 4.87,-7.90 4.92,-7.84 4.96,-7.77 4.99,-7.69 5.01,-7.62 5.02,-7.54 5.02,-7.46 5.01,-7.38 4.99,-7.31 4.97,-7.23 4.93,-7.16 4.89,-7.09 4.55,-6.28 4.21,-5.47 3.44,-4.47 2.68,-3.47 2.05,-2.80 1.41,-2.12 0.43,-1.06 -0.54,0.00 -1.52,1.20 -2.49,2.40 -3.88,3.33 -5.27,4.26 -5.74,4.66 -6.20,5.05 -6.86,5.47 -7.52,5.89 -8.41,6.25 -9.31,6.61 -10.62,6.82 -11.92,7.04 -13.12,7.01 -14.31,6.98 -15.12,6.90 -15.93,6.82 -17.20,6.29 -18.47,5.75 -19.19,5.37 -19.91,5.00 -20.86,4.23 -21.81,3.45 -22.38,2.47 -22.95,1.48 -22.97,0.57 -22.99,-0.33 -22.90,-0.96 -22.81,-1.58 -22.58,-2.57 -22.35,-3.56 -21.85,-4.63 -21.35,-5.69 -20.75,-6.48 -20.15,-7.27 -19.55,-7.80 -18.95,-8.32 -17.33,-9.24 -15.71,-10.16 -14.79,-10.41 -13.86,-10.66 -13.33,-10.65 -12.80,-10.65 -12.07,-10.64 -11.34,-10.62 -10.61,-10.58 -9.88,-10.55 -9.08,-10.43 -8.27,-10.31 -7.29,-9.76 -6.30,-9.21 -5.67,-8.85 -5.04,-8.50 -4.21,-7.60 -3.39,-6.71 -2.63,-5.93 -1.87,-5.15 -1.03,-4.26 -0.19,-3.37 0.24,-2.82 0.68,-2.27 0.80,-1.44 0.91,-0.61 0.97,-0.49 1.03,-0.37 1.06,-0.24 1.09,-0.11 1.09,0.01 1.09,0.15 1.05,0.27 1.02,0.40 0.96,0.52 0.89,0.64 0.80,0.73 0.71,0.83 0.60,0.91 0.49,0.98 0.37,1.02 0.24,1.07 0.11,1.08 -0.01,1.10 -0.14,1.08 -0.28,1.06 -0.40,1.01 -0.52,0.96 -0.63,0.89 -0.74,0.81 -0.83,0.71 -0.91,0.61 -0.91,0.61 L -0.91,0.61 Z"></path></g><g transform="translate(147.2957763671875 110.78097534179688) rotate(0 3.6514892578125 4.746917724609375)" stroke="none"><path fill="#1e1e1e" d="M 0.45,-0.67 Q 0.45,-0.67 1.40,-0.69 2.35,-0.71 2.86,-0.09 3.37,0.52 3.96,1.15 4.54,1.78 5.24,2.81 5.94,3.83 6.06,4.37 6.17,4.90 6.83,6.86 7.49,8.81 7.56,8.89 7.64,8.97 7.68,9.06 7.73,9.16 7.74,9.26 7.75,9.37 7.73,9.47 7.71,9.58 7.65,9.67 7.60,9.76 7.52,9.83 7.43,9.90 7.34,9.94 7.24,9.98 7.13,9.98 7.03,9.99 6.92,9.96 6.82,9.93 6.73,9.87 6.64,9.81 6.58,9.73 6.52,9.64 6.48,9.54 6.45,9.44 6.45,9.34 6.45,9.23 6.48,9.13 6.51,9.03 6.58,8.94 6.64,8.86 6.73,8.80 6.82,8.74 6.92,8.71 7.02,8.68 7.13,8.69 7.23,8.69 7.33,8.73 7.43,8.77 7.51,8.84 7.59,8.91 7.65,9.00 7.70,9.09 7.73,9.19 7.75,9.30 7.74,9.40 7.73,9.51 7.68,9.61 7.64,9.70 7.57,9.78 7.49,9.86 7.40,9.91 7.31,9.96 7.20,9.97 7.10,9.99 6.99,9.97 6.89,9.96 6.79,9.91 6.70,9.86 6.70,9.86 6.70,9.86 5.28,8.92 3.87,7.99 3.49,7.54 3.12,7.09 2.74,6.20 2.36,5.30 2.04,4.86 1.73,4.42 1.35,4.02 0.98,3.62 0.57,3.01 0.16,2.39 -0.14,1.53 -0.45,0.67 -0.52,0.61 -0.60,0.55 -0.65,0.47 -0.71,0.39 -0.75,0.29 -0.78,0.20 -0.80,0.11 -0.81,0.01 -0.80,-0.08 -0.79,-0.18 -0.76,-0.27 -0.72,-0.36 -0.67,-0.44 -0.61,-0.53 -0.54,-0.59 -0.47,-0.66 -0.38,-0.71 -0.30,-0.75 -0.20,-0.78 -0.11,-0.80 -0.01,-0.81 0.08,-0.81 0.18,-0.78 0.27,-0.76 0.36,-0.72 0.45,-0.67 0.45,-0.67 L 0.45,-0.67 Z"></path></g><g transform="translate(167.74411010742188 113.7021484375) rotate(0 6.572662353515625 0)" stroke="none"><path fill="#1e1e1e" d="M 0,-0.73 Q 0,-0.73 0.62,-1.35 1.25,-1.98 2.36,-1.99 3.46,-2.00 4.14,-2.01 4.83,-2.02 5.54,-2.02 6.25,-2.02 6.97,-2.02 7.69,-2.02 10.29,-1.33 12.90,-0.65 13.00,-0.63 13.11,-0.62 13.20,-0.57 13.30,-0.52 13.37,-0.44 13.44,-0.36 13.49,-0.27 13.53,-0.17 13.54,-0.07 13.55,0.03 13.53,0.13 13.51,0.24 13.45,0.33 13.40,0.42 13.32,0.49 13.24,0.56 13.14,0.60 13.04,0.64 12.93,0.64 12.83,0.65 12.72,0.62 12.62,0.59 12.53,0.53 12.45,0.47 12.38,0.39 12.32,0.30 12.28,0.20 12.25,0.10 12.25,-0.00 12.25,-0.10 12.28,-0.20 12.32,-0.30 12.38,-0.39 12.45,-0.47 12.53,-0.53 12.62,-0.59 12.72,-0.62 12.83,-0.65 12.93,-0.64 13.04,-0.64 13.14,-0.60 13.24,-0.56 13.32,-0.49 13.40,-0.42 13.45,-0.33 13.51,-0.24 13.53,-0.13 13.55,-0.03 13.54,0.07 13.53,0.17 13.49,0.27 13.44,0.36 13.37,0.44 13.29,0.52 13.20,0.57 13.11,0.62 13.00,0.63 12.90,0.65 12.90,0.65 12.90,0.65 10.29,1.33 7.69,2.02 6.97,2.02 6.25,2.02 5.54,2.02 4.83,2.02 4.14,2.01 3.46,2.00 2.36,1.99 1.25,1.98 0.62,1.35 0,0.73 -0.08,0.72 -0.17,0.71 -0.25,0.67 -0.34,0.64 -0.41,0.59 -0.48,0.54 -0.54,0.48 -0.60,0.41 -0.64,0.33 -0.68,0.25 -0.70,0.17 -0.72,0.08 -0.72,-0.00 -0.72,-0.08 -0.70,-0.17 -0.68,-0.25 -0.64,-0.33 -0.60,-0.41 -0.54,-0.48 -0.48,-0.54 -0.41,-0.59 -0.34,-0.64 -0.25,-0.67 -0.17,-0.71 -0.08,-0.72 0.00,-0.73 0.00,-0.73 L 0,-0.73 Z"></path></g><g transform="translate(215.21340942382812 117.35360717773438) rotate(0 -8.033279418945312 -7.3029632568359375)" stroke="none"><path fill="#1e1e1e" d="M -1.22,0 Q -1.22,0 -1.52,-1.25 -1.83,-2.51 -1.83,-3.26 -1.84,-4.01 -1.82,-5.06 -1.80,-6.12 -2.50,-6.77 -3.20,-7.42 -3.94,-8.26 -4.68,-9.10 -5.40,-9.87 -6.12,-10.63 -7.34,-11.39 -8.56,-12.15 -9.41,-12.34 -10.26,-12.52 -11.27,-12.57 -12.27,-12.62 -12.91,-12.63 -13.55,-12.64 -14.24,-12.03 -14.93,-11.42 -15.65,-10.97 -16.37,-10.52 -17.17,-9.61 -17.98,-8.70 -18.34,-7.91 -18.70,-7.12 -19.24,-5.95 -19.78,-4.78 -19.84,-4.06 -19.89,-3.35 -19.66,-2.56 -19.43,-1.77 -18.85,-1.90 -18.27,-2.04 -17.64,-2.03 -17.01,-2.02 -16.11,-2.01 -15.21,-2.01 -14.41,-2.01 -13.62,-2.01 -13.11,-2.18 -12.61,-2.36 -11.99,-2.46 -11.38,-2.57 -10.62,-3.04 -9.86,-3.51 -9.17,-3.86 -8.48,-4.21 -7.64,-4.73 -6.80,-5.26 -6.27,-5.66 -5.75,-6.06 -5.14,-6.61 -4.54,-7.16 -3.86,-7.82 -3.17,-8.48 -2.45,-9.19 -1.73,-9.89 -1.05,-10.32 -0.36,-10.75 0.60,-11.70 1.56,-12.65 2.83,-12.51 4.10,-12.36 4.17,-12.40 4.23,-12.45 4.31,-12.47 4.38,-12.50 4.46,-12.51 4.54,-12.52 4.62,-12.51 4.70,-12.49 4.77,-12.47 4.84,-12.44 4.91,-12.39 4.97,-12.34 5.02,-12.28 5.07,-12.22 5.11,-12.15 5.14,-12.08 5.16,-12.00 5.18,-11.93 5.18,-11.85 5.18,-11.77 5.16,-11.69 5.14,-11.62 5.10,-11.55 5.06,-11.48 5.01,-11.42 4.95,-11.36 4.91,-11.33 4.87,-11.30 4.77,-11.26 4.67,-11.22 4.57,-11.21 4.46,-11.21 4.36,-11.23 4.26,-11.26 4.17,-11.32 4.08,-11.38 4.01,-11.46 3.95,-11.55 3.91,-11.65 3.88,-11.75 3.88,-11.85 3.88,-11.96 3.91,-12.06 3.94,-12.16 4.01,-12.25 4.07,-12.33 4.16,-12.39 4.25,-12.45 4.35,-12.48 4.45,-12.51 4.56,-12.51 4.66,-12.50 4.76,-12.46 4.86,-12.43 4.94,-12.36 5.02,-12.29 5.08,-12.20 5.13,-12.11 5.16,-12.01 5.18,-11.90 5.17,-11.80 5.16,-11.69 5.12,-11.59 5.07,-11.50 5.00,-11.42 4.93,-11.34 4.84,-11.29 4.74,-11.24 4.64,-11.22 4.53,-11.20 4.43,-11.22 4.32,-11.24 4.23,-11.28 4.13,-11.33 4.06,-11.41 3.99,-11.49 3.94,-11.58 3.90,-11.68 3.88,-11.78 3.87,-11.89 3.89,-11.99 3.91,-12.10 3.97,-12.19 4.02,-12.28 4.06,-12.32 4.10,-12.36 4.17,-12.40 4.23,-12.45 4.31,-12.47 4.38,-12.50 4.46,-12.51 4.54,-12.52 4.62,-12.51 4.70,-12.49 4.77,-12.47 4.84,-12.44 4.91,-12.39 4.97,-12.34 5.02,-12.28 5.07,-12.22 5.11,-12.15 5.14,-12.08 5.16,-12.00 5.18,-11.93 5.18,-11.85 5.18,-11.77 5.16,-11.69 5.14,-11.62 5.10,-11.55 5.06,-11.48 5.01,-11.42 4.95,-11.36 4.99,-10.84 5.04,-10.33 4.08,-9.60 3.13,-8.88 2.10,-7.94 1.07,-6.99 0.34,-6.28 -0.37,-5.57 -1.10,-4.87 -1.83,-4.17 -2.57,-3.50 -3.32,-2.83 -4.00,-2.32 -4.67,-1.82 -5.66,-1.21 -6.65,-0.61 -7.32,-0.27 -7.99,0.06 -8.57,0.36 -9.14,0.66 -10.34,1.09 -11.55,1.52 -12.57,1.76 -13.59,2.00 -14.41,2.00 -15.23,2.00 -16.15,1.99 -17.07,1.99 -17.76,1.97 -18.45,1.96 -19.14,1.92 -19.83,1.88 -20.40,1.75 -20.97,1.62 -21.64,1.21 -22.30,0.79 -22.55,0.25 -22.80,-0.28 -23.18,-0.82 -23.56,-1.36 -23.72,-2.07 -23.87,-2.78 -23.83,-3.63 -23.79,-4.49 -23.70,-5.02 -23.61,-5.56 -23.18,-6.47 -22.75,-7.37 -22.50,-8.12 -22.25,-8.86 -21.67,-9.99 -21.09,-11.13 -20.31,-12.07 -19.53,-13.02 -18.51,-13.71 -17.50,-14.40 -17.03,-14.79 -16.57,-15.19 -15.96,-15.59 -15.35,-15.99 -14.49,-16.27 -13.62,-16.54 -12.89,-16.54 -12.15,-16.53 -11.47,-16.51 -10.78,-16.48 -10.23,-16.43 -9.67,-16.38 -8.79,-16.21 -7.91,-16.04 -7.17,-15.71 -6.43,-15.39 -5.59,-14.82 -4.74,-14.26 -4.04,-13.77 -3.34,-13.28 -2.56,-12.45 -1.78,-11.62 -0.97,-10.67 -0.15,-9.72 0.82,-8.15 1.80,-6.57 1.82,-5.29 1.84,-4.01 1.83,-3.26 1.83,-2.51 1.52,-1.25 1.22,0 1.21,0.14 1.19,0.29 1.13,0.43 1.08,0.57 1.00,0.69 0.91,0.81 0.80,0.91 0.69,1.01 0.56,1.07 0.43,1.14 0.29,1.18 0.14,1.21 -0.00,1.21 -0.14,1.21 -0.29,1.18 -0.43,1.14 -0.56,1.07 -0.69,1.01 -0.80,0.91 -0.91,0.81 -1.00,0.69 -1.08,0.57 -1.13,0.43 -1.19,0.29 -1.21,0.14 -1.22,-0.00 -1.22,-0.00 L -1.22,0 Z"></path></g><g transform="translate(202.79833984375 91.79324340820312) rotate(0 2.5560455322265625 -0.73028564453125)" stroke="none"><path fill="#1e1e1e" d="M -0.70,-0.70 Q -0.70,-0.70 -0.36,-1.63 -0.02,-2.56 0.65,-2.97 1.33,-3.39 2.34,-3.48 3.36,-3.57 4.13,-2.80 4.91,-2.04 4.83,-1.04 4.76,-0.04 4.24,0.55 3.71,1.14 2.79,1.72 1.87,2.29 0.91,2.23 -0.04,2.17 -0.70,1.21 -1.36,0.26 -1.04,-0.59 -0.72,-1.46 0.15,-1.89 1.02,-2.31 1.87,-2.26 2.72,-2.22 2.57,-2.17 2.42,-2.13 2.65,-2.13 2.87,-2.13 3.09,-2.08 3.31,-2.02 3.51,-1.92 3.71,-1.82 3.88,-1.67 4.05,-1.52 4.18,-1.33 4.31,-1.15 4.39,-0.94 4.47,-0.73 4.50,-0.50 4.52,-0.28 4.50,-0.06 4.47,0.16 4.39,0.37 4.31,0.58 4.19,0.76 4.06,0.95 3.89,1.10 3.72,1.25 3.53,1.36 3.33,1.46 3.11,1.52 2.89,1.57 1.92,1.41 0.95,1.25 0.47,0.85 -0.00,0.46 0.39,-1.02 0.80,-2.51 1.29,-2.76 1.79,-3.01 2.35,-1.91 2.91,-0.81 2.99,-0.82 3.07,-0.84 3.15,-0.83 3.23,-0.83 3.30,-0.80 3.38,-0.78 3.45,-0.74 3.51,-0.70 3.57,-0.64 3.62,-0.59 3.67,-0.52 3.71,-0.45 3.73,-0.37 3.75,-0.30 3.76,-0.22 3.76,-0.14 3.75,-0.06 3.73,0.00 3.70,0.08 3.67,0.15 3.62,0.21 3.57,0.27 3.51,0.32 3.45,0.37 3.38,0.40 3.30,0.44 3.35,0.42 3.39,0.40 3.29,0.43 3.19,0.46 3.08,0.46 2.97,0.45 2.87,0.41 2.78,0.38 2.69,0.31 2.61,0.24 2.56,0.15 2.50,0.06 2.48,-0.03 2.45,-0.14 2.46,-0.24 2.47,-0.35 2.52,-0.45 2.56,-0.54 2.63,-0.62 2.71,-0.70 2.80,-0.75 2.89,-0.80 3.00,-0.82 3.10,-0.84 3.21,-0.82 3.31,-0.80 3.41,-0.76 3.50,-0.71 3.57,-0.63 3.65,-0.55 3.69,-0.46 3.74,-0.36 3.75,-0.26 3.76,-0.15 3.74,-0.05 3.72,0.05 3.67,0.14 3.61,0.23 3.53,0.30 3.45,0.37 3.35,0.41 3.26,0.45 3.15,0.46 3.04,0.46 2.94,0.44 2.84,0.41 2.75,0.35 2.66,0.29 2.60,0.21 2.53,0.12 2.50,0.02 2.46,-0.07 2.46,-0.17 2.46,-0.28 2.49,-0.38 2.52,-0.48 2.59,-0.57 2.65,-0.65 2.78,-0.73 2.91,-0.81 2.99,-0.82 3.07,-0.84 3.15,-0.83 3.23,-0.83 3.30,-0.80 3.38,-0.78 3.45,-0.74 3.51,-0.70 3.57,-0.64 3.62,-0.59 3.67,-0.52 3.71,-0.45 3.73,-0.37 3.75,-0.30 3.76,-0.22 3.76,-0.14 3.75,-0.06 3.73,0.00 3.70,0.08 3.67,0.15 3.62,0.21 3.57,0.27 3.51,0.32 3.45,0.37 3.38,0.40 3.30,0.44 2.78,0.45 2.26,0.46 2.76,-0.44 3.26,-1.34 2.84,-1.73 2.42,-2.13 2.65,-2.13 2.87,-2.13 3.09,-2.08 3.31,-2.02 3.51,-1.92 3.71,-1.82 3.88,-1.67 4.05,-1.52 4.18,-1.33 4.31,-1.15 4.39,-0.94 4.47,-0.73 4.50,-0.50 4.52,-0.28 4.50,-0.06 4.47,0.16 4.39,0.37 4.31,0.58 4.19,0.76 4.06,0.95 3.89,1.10 3.72,1.25 3.53,1.36 3.33,1.46 3.11,1.52 2.89,1.57 2.35,0.93 1.81,0.28 1.27,-0.40 0.73,-1.10 1.30,-1.22 1.87,-1.35 2.20,-0.65 2.54,0.04 1.62,0.37 0.70,0.70 0.61,0.78 0.51,0.85 0.40,0.90 0.29,0.95 0.17,0.97 0.06,1.00 -0.06,0.99 -0.18,0.98 -0.29,0.95 -0.41,0.91 -0.51,0.85 -0.61,0.78 -0.70,0.70 -0.78,0.61 -0.85,0.51 -0.91,0.41 -0.95,0.29 -0.98,0.18 -0.99,0.06 -1.00,-0.06 -0.97,-0.17 -0.95,-0.29 -0.90,-0.40 -0.85,-0.51 -0.78,-0.61 -0.70,-0.70 -0.70,-0.70 L -0.70,-0.70 Z"></path></g><g transform="translate(125.38690185546875 125.38690185546875) rotate(0 47.83445739746094 2.5560302734375)" stroke="none"><path fill="#1e1e1e" d="M 0.83,0 Q 0.83,0 1.35,0.46 1.87,0.93 3.07,1.01 4.27,1.10 5.19,1.25 6.11,1.40 7.27,1.70 8.43,2.00 9.56,2.09 10.69,2.19 12.17,2.46 13.65,2.73 15.17,2.83 16.69,2.93 17.79,2.97 18.88,3.02 20.37,3.04 21.87,3.06 22.93,3.07 23.99,3.07 24.88,2.89 25.77,2.70 28.40,2.39 31.03,2.08 32.57,1.95 34.11,1.82 35.20,1.76 36.29,1.71 36.96,1.51 37.63,1.31 39.01,1.18 40.40,1.05 41.37,1.00 42.34,0.96 43.40,0.94 44.45,0.92 45.32,0.91 46.18,0.91 46.76,0.90 47.33,0.90 48.21,0.90 49.09,0.90 49.88,0.90 50.67,0.90 51.43,0.90 52.19,0.90 53.76,0.90 55.34,0.90 55.99,0.71 56.65,0.53 57.56,0.42 58.48,0.31 59.30,0.27 60.12,0.22 60.89,0.21 61.66,0.19 62.62,0.18 63.58,0.18 64.83,0.17 66.07,0.17 67.02,0.17 67.97,0.17 69.00,0.17 70.04,0.17 71.32,0.17 72.59,0.17 73.35,0.17 74.10,0.17 75.28,0.16 76.45,0.16 77.77,0.16 79.09,0.16 79.87,0.16 80.64,0.16 81.39,0.16 82.14,0.16 83.10,0.16 84.07,0.16 85.26,0.16 86.45,0.16 87.00,0.16 87.55,0.16 88.39,0.16 89.23,0.16 90.19,0.16 91.15,0.16 92.55,0.43 93.95,0.69 94.60,0.77 95.24,0.85 96.50,2.84 97.76,4.84 97.75,4.95 97.74,5.05 97.70,5.15 97.66,5.25 97.59,5.33 97.52,5.41 97.43,5.46 97.34,5.51 97.23,5.53 97.13,5.55 97.02,5.54 96.92,5.52 96.82,5.48 96.73,5.43 96.65,5.35 96.57,5.28 96.53,5.18 96.48,5.09 96.46,4.98 96.45,4.88 96.47,4.77 96.49,4.67 96.54,4.58 96.59,4.49 96.67,4.41 96.75,4.34 96.85,4.30 96.95,4.26 97.05,4.25 97.16,4.24 97.26,4.27 97.36,4.29 97.45,4.35 97.54,4.40 97.61,4.49 97.68,4.57 97.71,4.67 97.75,4.77 97.75,4.88 97.76,4.98 97.73,5.08 97.70,5.18 97.63,5.27 97.57,5.36 97.49,5.42 97.40,5.48 97.30,5.51 97.20,5.55 97.09,5.54 96.98,5.54 96.88,5.50 96.79,5.47 96.70,5.40 96.62,5.33 96.56,5.25 96.50,5.16 96.48,5.05 96.45,4.95 96.45,4.95 96.45,4.95 95.16,4.86 93.86,4.77 93.25,4.64 92.64,4.52 91.90,4.36 91.15,4.21 90.19,4.21 89.23,4.21 88.39,4.21 87.55,4.21 87.00,4.21 86.45,4.21 85.26,4.21 84.07,4.21 83.10,4.21 82.14,4.21 81.39,4.21 80.64,4.21 79.87,4.21 79.09,4.21 77.77,4.21 76.45,4.21 75.28,4.21 74.10,4.21 73.35,4.21 72.60,4.21 71.32,4.21 70.04,4.21 69.01,4.21 67.98,4.21 67.03,4.21 66.08,4.21 64.85,4.21 63.61,4.22 62.68,4.22 61.75,4.23 61.03,4.25 60.32,4.26 59.63,4.29 58.93,4.33 58.26,4.39 57.58,4.46 56.47,4.70 55.36,4.94 53.78,4.94 52.19,4.94 51.43,4.94 50.68,4.94 49.89,4.94 49.10,4.94 48.23,4.94 47.36,4.94 46.79,4.95 46.22,4.95 45.37,4.96 44.52,4.96 43.52,4.98 42.52,5.00 41.63,5.04 40.73,5.08 39.69,5.15 38.66,5.21 37.59,5.48 36.51,5.74 35.48,5.80 34.45,5.85 32.97,5.97 31.50,6.09 29.01,6.38 26.52,6.67 25.25,6.89 23.97,7.11 22.89,7.11 21.81,7.10 20.26,7.08 18.71,7.06 17.56,7.01 16.42,6.96 14.66,6.83 12.90,6.71 11.61,6.46 10.31,6.21 8.85,6.06 7.39,5.91 6.41,5.64 5.43,5.38 4.30,5.18 3.16,4.97 1.32,4.30 -0.51,3.63 -1.19,2.61 -1.87,1.58 -1.35,0.79 -0.83,0 -0.82,-0.09 -0.80,-0.19 -0.77,-0.29 -0.73,-0.38 -0.68,-0.47 -0.62,-0.55 -0.54,-0.61 -0.47,-0.68 -0.38,-0.73 -0.29,-0.78 -0.19,-0.80 -0.10,-0.82 0.00,-0.82 0.10,-0.82 0.19,-0.80 0.29,-0.78 0.38,-0.73 0.47,-0.68 0.54,-0.61 0.62,-0.55 0.68,-0.47 0.73,-0.38 0.77,-0.29 0.81,-0.19 0.82,-0.09 0.83,0.00 0.83,0.00 L 0.83,0 Z"></path></g><g transform="translate(156.05935668945312 139.99282836914062) rotate(0 -0.3651580810546875 10.58929443359375)" stroke="none"><path fill="#1e1e1e" d="M 1.06,0 Q 1.06,0 1.51,0.83 1.96,1.67 1.97,3.08 1.97,4.49 1.98,5.72 1.98,6.94 1.98,8.52 1.99,10.09 1.77,11.93 1.56,13.76 1.48,15.07 1.40,16.37 0.66,18.44 -0.07,20.51 -0.08,20.59 -0.10,20.67 -0.13,20.74 -0.16,20.81 -0.21,20.87 -0.26,20.94 -0.33,20.98 -0.39,21.03 -0.46,21.06 -0.53,21.10 -0.61,21.11 -0.69,21.12 -0.77,21.12 -0.85,21.11 -0.92,21.09 -1.00,21.07 -1.06,21.03 -1.13,20.98 -1.19,20.93 -1.24,20.87 -1.28,20.80 -1.32,20.74 -1.35,20.66 -1.37,20.58 -1.38,20.51 -1.38,20.43 -1.37,20.35 -1.35,20.28 -1.31,20.18 -1.26,20.09 -1.18,20.01 -1.11,19.94 -1.01,19.89 -0.92,19.84 -0.81,19.83 -0.71,19.81 -0.60,19.83 -0.50,19.85 -0.41,19.90 -0.31,19.96 -0.24,20.03 -0.17,20.11 -0.13,20.21 -0.09,20.31 -0.08,20.41 -0.07,20.52 -0.10,20.62 -0.12,20.73 -0.18,20.82 -0.23,20.91 -0.32,20.97 -0.40,21.04 -0.50,21.08 -0.60,21.11 -0.71,21.12 -0.81,21.12 -0.91,21.09 -1.01,21.06 -1.10,21.00 -1.19,20.93 -1.25,20.85 -1.31,20.76 -1.34,20.66 -1.37,20.56 -1.37,20.45 -1.37,20.35 -1.33,20.25 -1.30,20.15 -1.23,20.06 -1.16,19.98 -1.08,19.92 -0.99,19.87 -0.88,19.84 -0.78,19.81 -0.67,19.82 -0.57,19.83 -0.47,19.87 -0.37,19.91 -0.29,19.99 -0.21,20.06 -0.16,20.15 -0.11,20.24 -0.09,20.35 -0.07,20.45 -0.07,20.48 -0.07,20.51 -0.08,20.59 -0.10,20.67 -0.13,20.74 -0.16,20.81 -0.21,20.87 -0.26,20.94 -0.33,20.98 -0.39,21.03 -0.46,21.06 -0.53,21.10 -0.61,21.11 -0.69,21.12 -0.77,21.12 -0.85,21.11 -0.92,21.09 -1.00,21.07 -1.06,21.03 -1.13,20.98 -1.19,20.93 -1.24,20.87 -1.28,20.80 -1.32,20.74 -1.35,20.66 -1.37,20.58 -1.38,20.51 -1.38,20.43 -1.99,18.27 -2.60,16.11 -2.50,14.70 -2.40,13.28 -2.19,11.68 -1.99,10.09 -1.98,8.51 -1.98,6.94 -1.98,5.72 -1.97,4.49 -1.97,3.08 -1.96,1.67 -1.51,0.83 -1.06,0 -1.05,-0.12 -1.03,-0.25 -0.99,-0.37 -0.94,-0.49 -0.87,-0.60 -0.79,-0.70 -0.70,-0.79 -0.60,-0.87 -0.49,-0.93 -0.37,-0.99 -0.25,-1.02 -0.12,-1.05 0.00,-1.05 0.12,-1.05 0.25,-1.02 0.37,-0.99 0.49,-0.93 0.60,-0.87 0.70,-0.79 0.79,-0.70 0.87,-0.60 0.94,-0.49 0.99,-0.37 1.03,-0.25 1.05,-0.12 1.06,0.00 1.06,0.00 L 1.06,0 Z"></path></g><g transform="translate(180.88943481445312 156.78964233398438) rotate(0 -7.3029632568359375 -5.842376708984375)" stroke="none"><path fill="#1e1e1e" d="M -0.63,0.21 Q -0.63,0.21 -1.36,-0.24 -2.09,-0.70 -2.20,-1.26 -2.31,-1.81 -3.00,-2.49 -3.70,-3.16 -4.35,-3.54 -5.01,-3.91 -5.48,-4.16 -5.95,-4.41 -6.51,-4.83 -7.08,-5.25 -7.53,-5.65 -7.99,-6.05 -8.38,-6.42 -8.76,-6.79 -9.42,-7.15 -10.08,-7.51 -10.67,-7.50 -11.25,-7.50 -11.94,-7.50 -12.62,-7.51 -13.64,-7.00 -14.65,-6.49 -15.09,-5.82 -15.53,-5.16 -15.51,-4.61 -15.49,-4.07 -15.50,-3.39 -15.51,-2.70 -14.39,-2.37 -13.27,-2.03 -12.52,-2.03 -11.77,-2.04 -10.82,-2.30 -9.88,-2.57 -9.33,-3.12 -8.78,-3.66 -7.83,-4.36 -6.87,-5.06 -6.02,-5.58 -5.16,-6.10 -4.84,-6.54 -4.52,-6.98 -3.62,-7.91 -2.73,-8.84 -2.15,-9.42 -1.58,-10.01 -0.89,-10.75 -0.20,-11.50 1.04,-10.78 2.29,-10.07 2.33,-10.14 2.37,-10.20 2.43,-10.26 2.48,-10.31 2.55,-10.36 2.62,-10.40 2.70,-10.42 2.77,-10.44 2.85,-10.45 2.93,-10.45 3.01,-10.44 3.09,-10.42 3.16,-10.39 3.23,-10.36 3.29,-10.31 3.35,-10.26 3.40,-10.20 3.45,-10.13 3.48,-10.06 3.51,-9.99 3.53,-9.91 3.54,-9.83 3.54,-9.75 3.53,-9.67 3.51,-9.60 3.48,-9.52 3.51,-9.59 3.53,-9.65 3.49,-9.55 3.45,-9.45 3.38,-9.37 3.31,-9.29 3.21,-9.24 3.12,-9.18 3.02,-9.16 2.91,-9.14 2.81,-9.15 2.70,-9.17 2.61,-9.21 2.51,-9.26 2.44,-9.33 2.36,-9.41 2.31,-9.50 2.26,-9.59 2.25,-9.70 2.23,-9.80 2.25,-9.91 2.27,-10.01 2.32,-10.11 2.37,-10.20 2.45,-10.27 2.53,-10.34 2.62,-10.39 2.72,-10.43 2.83,-10.44 2.93,-10.45 3.03,-10.43 3.14,-10.40 3.23,-10.35 3.32,-10.29 3.39,-10.21 3.45,-10.13 3.49,-10.03 3.53,-9.93 3.53,-9.82 3.54,-9.72 3.51,-9.61 3.48,-9.51 3.42,-9.43 3.36,-9.34 3.27,-9.27 3.19,-9.21 3.09,-9.18 2.98,-9.15 2.88,-9.15 2.77,-9.15 2.67,-9.18 2.57,-9.22 2.49,-9.29 2.40,-9.35 2.35,-9.44 2.29,-9.53 2.26,-9.63 2.23,-9.73 2.26,-9.90 2.29,-10.07 2.33,-10.14 2.37,-10.20 2.43,-10.26 2.48,-10.31 2.55,-10.36 2.62,-10.40 2.70,-10.42 2.77,-10.44 2.85,-10.45 2.93,-10.45 3.01,-10.44 3.08,-10.42 3.16,-10.39 3.23,-10.36 3.29,-10.31 3.35,-10.26 3.40,-10.20 3.45,-10.13 3.48,-10.06 3.51,-9.99 3.53,-9.91 3.54,-9.83 3.54,-9.75 3.53,-9.67 3.51,-9.60 3.48,-9.52 3.17,-9.48 2.86,-9.44 2.46,-8.96 2.05,-8.49 1.69,-7.85 1.33,-7.22 0.75,-6.63 0.17,-6.03 -0.65,-5.17 -1.48,-4.31 -2.25,-3.50 -3.02,-2.68 -3.76,-2.24 -4.50,-1.79 -5.31,-1.21 -6.12,-0.62 -6.87,0.00 -7.62,0.64 -8.75,1.07 -9.89,1.49 -10.86,1.74 -11.83,1.98 -13.04,1.87 -14.25,1.77 -14.98,1.40 -15.71,1.04 -16.35,0.71 -16.99,0.38 -17.61,0.17 -18.23,-0.04 -18.72,-0.69 -19.20,-1.34 -19.36,-2.42 -19.51,-3.51 -19.47,-4.35 -19.43,-5.19 -19.33,-5.72 -19.24,-6.26 -18.78,-7.10 -18.33,-7.94 -17.91,-8.58 -17.48,-9.23 -16.73,-9.68 -15.97,-10.12 -15.04,-10.72 -14.10,-11.33 -12.96,-11.39 -11.82,-11.44 -10.98,-11.40 -10.15,-11.35 -9.62,-11.26 -9.09,-11.17 -8.27,-10.75 -7.45,-10.32 -6.43,-9.63 -5.41,-8.94 -4.71,-8.34 -4.01,-7.73 -3.11,-7.10 -2.20,-6.47 -1.56,-6.06 -0.93,-5.65 -0.48,-5.10 -0.02,-4.55 0.61,-3.18 1.25,-1.81 0.94,-1.01 0.63,-0.21 0.65,-0.13 0.66,-0.05 0.66,0.02 0.66,0.10 0.63,0.18 0.61,0.26 0.57,0.33 0.53,0.40 0.47,0.46 0.42,0.51 0.35,0.56 0.28,0.60 0.21,0.63 0.13,0.65 0.05,0.66 -0.02,0.66 -0.10,0.65 -0.18,0.64 -0.26,0.61 -0.33,0.57 -0.39,0.53 -0.46,0.48 -0.51,0.42 -0.56,0.35 -0.60,0.28 -0.63,0.21 -0.63,0.21 L -0.63,0.21 Z"></path></g><g transform="translate(193.30450439453125 138.5322265625) rotate(0 -0.7303009033203125 10.224151611328125)" stroke="none"><path fill="#1e1e1e" d="M 1.23,0 Q 1.23,0 1.59,1.05 1.95,2.11 1.72,3.20 1.49,4.29 1.43,5.34 1.37,6.39 1.34,7.90 1.31,9.42 1.07,10.86 0.83,12.30 0.76,13.39 0.68,14.48 0.65,15.57 0.61,16.65 -0.09,17.54 -0.80,18.43 -0.81,18.51 -0.82,18.59 -0.85,18.66 -0.88,18.74 -0.93,18.80 -0.98,18.86 -1.04,18.91 -1.10,18.96 -1.17,19.00 -1.24,19.03 -1.32,19.05 -1.40,19.06 -1.48,19.06 -1.56,19.06 -1.63,19.04 -1.71,19.02 -1.78,18.98 -1.85,18.94 -1.90,18.88 -1.96,18.83 -2.00,18.76 -2.05,18.69 -2.07,18.62 -2.10,18.54 -2.10,18.47 -2.11,18.39 -2.09,18.30 -2.08,18.20 -2.03,18.11 -1.98,18.02 -1.90,17.94 -1.83,17.87 -1.73,17.82 -1.63,17.78 -1.53,17.77 -1.42,17.75 -1.32,17.78 -1.21,17.80 -1.12,17.85 -1.03,17.91 -0.96,17.99 -0.89,18.07 -0.85,18.17 -0.81,18.27 -0.81,18.37 -0.80,18.48 -0.83,18.58 -0.86,18.68 -0.92,18.77 -0.98,18.86 -1.06,18.92 -1.14,18.99 -1.24,19.02 -1.35,19.06 -1.45,19.06 -1.56,19.06 -1.66,19.03 -1.76,18.99 -1.84,18.93 -1.93,18.86 -1.99,18.78 -2.05,18.69 -2.08,18.59 -2.11,18.48 -2.10,18.38 -2.10,18.27 -2.06,18.17 -2.02,18.07 -1.95,17.99 -1.88,17.91 -1.79,17.86 -1.70,17.80 -1.60,17.78 -1.49,17.76 -1.39,17.77 -1.28,17.78 -1.19,17.82 -1.09,17.87 -1.01,17.94 -0.93,18.01 -0.88,18.10 -0.83,18.20 -0.82,18.30 -0.80,18.41 -0.80,18.42 -0.80,18.43 -0.81,18.51 -0.82,18.59 -0.85,18.66 -0.88,18.74 -0.93,18.80 -0.98,18.86 -1.04,18.91 -1.10,18.96 -1.17,19.00 -1.24,19.03 -1.32,19.05 -1.40,19.06 -1.48,19.06 -1.56,19.06 -1.63,19.04 -1.71,19.02 -1.78,18.98 -1.85,18.94 -1.90,18.88 -1.96,18.83 -2.00,18.76 -2.05,18.69 -2.07,18.62 -2.10,18.54 -2.10,18.47 -2.11,18.39 -2.76,17.45 -3.41,16.51 -3.36,15.33 -3.32,14.15 -3.20,12.88 -3.09,11.61 -2.87,10.47 -2.65,9.32 -2.61,7.71 -2.56,6.10 -2.45,4.73 -2.33,3.37 -2.14,2.72 -1.95,2.08 -1.59,1.04 -1.23,0 -1.22,-0.14 -1.20,-0.29 -1.15,-0.43 -1.09,-0.57 -1.01,-0.69 -0.92,-0.82 -0.81,-0.92 -0.70,-1.01 -0.57,-1.08 -0.43,-1.15 -0.29,-1.19 -0.14,-1.22 0.00,-1.22 0.14,-1.22 0.29,-1.19 0.43,-1.15 0.57,-1.08 0.70,-1.01 0.81,-0.92 0.92,-0.82 1.01,-0.69 1.09,-0.57 1.15,-0.43 1.20,-0.29 1.22,-0.14 1.23,0.00 1.23,0.00 L 1.23,0 Z"></path></g><g transform="translate(121.00509643554688 93.984130859375) rotate(0 -1.0954437255859375 14.605926513671875)" stroke="none"><path fill="#1e1e1e" d="M 0.68,0.22 Q 0.68,0.22 1.05,1.04 1.43,1.87 1.36,3.01 1.29,4.16 1.28,5.06 1.27,5.95 1.26,6.76 1.26,7.57 1.26,8.34 1.26,9.10 1.03,10.26 0.79,11.43 0.72,12.15 0.65,12.86 0.60,13.80 0.55,14.74 0.55,15.53 0.54,16.33 0.54,16.88 0.54,17.44 0.54,18.09 0.54,18.75 0.54,19.65 0.54,20.56 0.54,21.16 0.54,21.75 0.54,22.62 0.54,23.49 0.27,24.80 0.00,26.10 -0.06,26.72 -0.13,27.34 -0.53,26.69 -0.93,26.05 -0.94,26.13 -0.96,26.20 -0.99,26.28 -1.02,26.35 -1.07,26.41 -1.11,26.48 -1.18,26.53 -1.24,26.58 -1.31,26.61 -1.38,26.64 -1.46,26.66 -1.54,26.68 -1.61,26.67 -1.69,26.67 -1.77,26.65 -1.85,26.62 -1.91,26.58 -1.98,26.55 -2.04,26.49 -2.10,26.44 -2.14,26.37 -2.18,26.30 -2.21,26.23 -2.23,26.15 -2.24,26.07 -2.24,25.99 -2.19,25.82 -2.13,25.65 -2.06,25.57 -1.98,25.50 -1.89,25.45 -1.79,25.40 -1.69,25.38 -1.58,25.36 -1.48,25.38 -1.37,25.40 -1.28,25.45 -1.19,25.50 -1.11,25.58 -1.04,25.65 -1.00,25.75 -0.95,25.85 -0.94,25.95 -0.93,26.06 -0.95,26.16 -0.98,26.27 -1.03,26.36 -1.09,26.45 -1.17,26.52 -1.25,26.58 -1.35,26.62 -1.45,26.66 -1.55,26.67 -1.66,26.67 -1.76,26.64 -1.86,26.62 -1.95,26.56 -2.04,26.50 -2.10,26.41 -2.17,26.33 -2.20,26.23 -2.24,26.12 -2.23,26.02 -2.23,25.91 -2.20,25.81 -2.17,25.71 -2.10,25.63 -2.04,25.54 -1.95,25.48 -1.86,25.42 -1.76,25.40 -1.66,25.37 -1.55,25.37 -1.44,25.38 -1.34,25.42 -1.25,25.46 -1.17,25.53 -1.08,25.60 -1.03,25.69 -0.98,25.78 -0.95,25.88 -0.93,25.99 -0.94,26.09 -0.95,26.20 -0.94,26.12 -0.93,26.05 -0.94,26.13 -0.96,26.20 -0.99,26.28 -1.02,26.35 -1.07,26.41 -1.11,26.48 -1.18,26.53 -1.24,26.58 -1.31,26.61 -1.38,26.64 -1.46,26.66 -1.54,26.68 -1.61,26.67 -1.69,26.67 -1.77,26.65 -1.85,26.62 -1.91,26.58 -1.98,26.55 -2.04,26.49 -2.10,26.44 -2.14,26.37 -2.18,26.30 -2.21,26.23 -2.23,26.15 -2.24,26.07 -2.24,25.99 -3.21,26.91 -4.17,27.83 -4.10,26.89 -4.02,25.96 -3.89,25.35 -3.76,24.75 -3.61,24.12 -3.46,23.49 -3.46,22.62 -3.46,21.75 -3.46,21.16 -3.46,20.56 -3.46,19.65 -3.45,18.74 -3.45,18.08 -3.45,17.42 -3.45,16.85 -3.44,16.29 -3.42,14.96 -3.39,13.64 -3.35,13.03 -3.31,12.43 -3.20,11.50 -3.09,10.57 -2.90,9.82 -2.71,9.07 -2.71,8.30 -2.70,7.54 -2.69,6.71 -2.68,5.89 -2.66,4.92 -2.64,3.95 -2.59,3.16 -2.54,2.38 -2.40,1.51 -2.27,0.64 -1.47,0.21 -0.68,-0.22 -0.64,-0.30 -0.60,-0.38 -0.55,-0.45 -0.49,-0.51 -0.42,-0.57 -0.36,-0.62 -0.28,-0.65 -0.20,-0.69 -0.11,-0.70 -0.02,-0.71 0.05,-0.71 0.14,-0.70 0.22,-0.67 0.30,-0.65 0.38,-0.60 0.45,-0.55 0.51,-0.49 0.57,-0.43 0.61,-0.35 0.66,-0.28 0.68,-0.19 0.71,-0.11 0.71,-0.02 0.71,0.05 0.69,0.14 0.68,0.22 0.68,0.22 L 0.68,0.22 Z"></path></g><g transform="translate(229.81930541992188 91.79324340820312) rotate(0 -1.4605865478515625 15.336227416992188)" stroke="none"><path fill="#1e1e1e" d="M 0.75,0 Q 0.75,0 1.32,1.04 1.89,2.09 1.91,4.01 1.94,5.93 1.94,7.16 1.95,8.40 1.74,10.10 1.53,11.80 1.45,12.84 1.37,13.88 1.12,15.48 0.86,17.07 0.77,18.46 0.68,19.86 0.40,21.07 0.12,22.28 0.03,22.87 -0.06,23.45 -0.09,24.05 -0.12,24.65 -0.14,25.34 -0.16,26.03 -0.41,27.01 -0.67,27.98 -1.48,28.76 -2.29,29.54 -2.32,29.61 -2.35,29.68 -2.40,29.75 -2.45,29.81 -2.51,29.86 -2.57,29.91 -2.64,29.94 -2.71,29.98 -2.79,29.99 -2.87,30.01 -2.95,30.00 -3.03,30.00 -3.10,29.97 -3.18,29.95 -3.25,29.91 -3.31,29.87 -3.37,29.82 -3.43,29.76 -3.47,29.69 -3.51,29.63 -3.53,29.55 -3.56,29.47 -3.56,29.40 -3.57,29.32 -3.56,29.24 -3.54,29.16 -3.54,29.15 -3.54,29.15 -3.49,29.05 -3.44,28.96 -3.37,28.89 -3.29,28.81 -3.19,28.77 -3.10,28.72 -2.99,28.71 -2.89,28.69 -2.78,28.72 -2.68,28.74 -2.59,28.79 -2.50,28.84 -2.43,28.92 -2.36,29.00 -2.32,29.10 -2.27,29.20 -2.27,29.31 -2.26,29.41 -2.29,29.52 -2.31,29.62 -2.37,29.71 -2.43,29.80 -2.52,29.86 -2.60,29.93 -2.70,29.96 -2.80,30.00 -2.91,30.00 -3.01,30.00 -3.11,29.97 -3.21,29.93 -3.30,29.87 -3.39,29.81 -3.45,29.72 -3.51,29.63 -3.54,29.53 -3.57,29.43 -3.56,29.32 -3.56,29.22 -3.52,29.12 -3.48,29.02 -3.41,28.94 -3.35,28.86 -3.26,28.80 -3.17,28.74 -3.06,28.72 -2.96,28.70 -2.85,28.71 -2.75,28.72 -2.65,28.76 -2.55,28.80 -2.47,28.87 -2.40,28.95 -2.35,29.04 -2.29,29.13 -2.28,29.24 -2.26,29.34 -2.27,29.44 -2.29,29.54 -2.32,29.61 -2.35,29.68 -2.40,29.75 -2.45,29.81 -2.51,29.86 -2.57,29.91 -2.64,29.94 -2.71,29.98 -2.79,29.99 -2.87,30.01 -2.95,30.00 -3.03,30.00 -3.10,29.97 -3.18,29.95 -3.25,29.91 -3.31,29.87 -3.37,29.82 -3.43,29.76 -3.47,29.69 -3.51,29.63 -3.53,29.55 -3.56,29.47 -3.56,29.40 -3.57,29.32 -3.56,29.24 -3.54,29.16 -3.85,27.52 -4.16,25.88 -4.13,25.14 -4.11,24.39 -4.05,23.60 -4.00,22.80 -3.87,22.07 -3.75,21.34 -3.52,20.45 -3.29,19.57 -3.17,18.00 -3.05,16.43 -2.81,14.99 -2.57,13.56 -2.47,12.42 -2.37,11.28 -2.16,9.84 -1.95,8.39 -1.94,7.16 -1.94,5.93 -1.91,4.01 -1.89,2.09 -1.32,1.04 -0.75,0 -0.74,-0.09 -0.73,-0.18 -0.70,-0.26 -0.66,-0.35 -0.61,-0.42 -0.56,-0.50 -0.49,-0.56 -0.42,-0.62 -0.34,-0.66 -0.26,-0.70 -0.17,-0.72 -0.09,-0.75 0.00,-0.75 0.09,-0.75 0.17,-0.72 0.26,-0.70 0.34,-0.66 0.42,-0.62 0.49,-0.56 0.56,-0.50 0.61,-0.42 0.66,-0.35 0.70,-0.26 0.73,-0.18 0.74,-0.09 0.75,0.00 0.75,0.00 L 0.75,0 Z"></path></g><g transform="translate(217.40426635742188 129.03839111328125) rotate(0 9.12872314453125 -1.460601806640625)" stroke="none"><path fill="#1e1e1e" d="M -0.23,-0.69 Q -0.23,-0.69 0.19,-1.51 0.62,-2.33 1.50,-2.46 2.37,-2.59 3.16,-2.64 3.95,-2.69 4.70,-2.70 5.45,-2.72 6.41,-2.73 7.36,-2.74 7.97,-2.74 8.58,-2.74 9.46,-2.74 10.34,-2.75 10.94,-2.75 11.53,-2.75 12.40,-2.75 13.27,-2.75 14.20,-2.74 15.12,-2.73 16.38,-2.65 17.63,-2.57 17.64,-2.68 17.64,-2.78 17.68,-2.88 17.72,-2.98 17.79,-3.06 17.85,-3.14 17.94,-3.20 18.03,-3.26 18.14,-3.28 18.24,-3.30 18.35,-3.29 18.45,-3.28 18.55,-3.24 18.65,-3.20 18.72,-3.12 18.80,-3.05 18.85,-2.96 18.90,-2.87 18.92,-2.76 18.94,-2.66 18.93,-2.55 18.91,-2.45 18.86,-2.35 18.81,-2.26 18.74,-2.18 18.66,-2.11 18.56,-2.06 18.47,-2.02 18.36,-2.00 18.26,-1.99 18.15,-2.01 18.05,-2.04 17.96,-2.09 17.87,-2.14 17.80,-2.22 17.73,-2.30 17.69,-2.40 17.65,-2.50 17.64,-2.61 17.63,-2.71 17.66,-2.81 17.69,-2.92 17.74,-3.01 17.80,-3.09 17.89,-3.16 17.97,-3.22 18.07,-3.26 18.17,-3.29 18.28,-3.30 18.38,-3.30 18.48,-3.26 18.59,-3.23 18.67,-3.17 18.76,-3.11 18.82,-3.02 18.88,-2.93 18.91,-2.83 18.94,-2.73 18.94,-2.73 18.94,-2.73 17.94,-1.02 16.95,0.68 16.11,0.98 15.28,1.27 14.27,1.28 13.27,1.29 12.40,1.29 11.53,1.29 10.94,1.29 10.35,1.29 9.47,1.29 8.60,1.29 7.99,1.29 7.39,1.30 6.47,1.30 5.54,1.31 4.85,1.32 4.16,1.34 3.02,1.41 1.88,1.49 1.06,1.09 0.23,0.69 0.14,0.71 0.05,0.73 -0.02,0.72 -0.11,0.72 -0.20,0.70 -0.28,0.67 -0.36,0.63 -0.44,0.58 -0.50,0.52 -0.56,0.46 -0.61,0.38 -0.66,0.31 -0.69,0.23 -0.71,0.14 -0.72,0.05 -0.73,-0.02 -0.71,-0.11 -0.70,-0.20 -0.67,-0.28 -0.63,-0.36 -0.58,-0.43 -0.52,-0.50 -0.46,-0.56 -0.39,-0.62 -0.31,-0.65 -0.23,-0.69 -0.23,-0.69 L -0.23,-0.69 Z"></path></g><g transform="translate(126.84747314453125 126.84747314453125) rotate(0 -9.493850708007812 -0.73028564453125)" stroke="none"><path fill="#1e1e1e" d="M 0,0.67 Q 0,0.67 -0.62,1.33 -1.25,1.99 -2.15,1.99 -3.04,2.00 -3.80,2.00 -4.55,2.01 -5.29,2.01 -6.03,2.01 -6.76,2.01 -7.49,2.02 -8.22,2.02 -8.95,2.02 -9.64,1.85 -10.34,1.68 -10.88,1.30 -11.43,0.91 -12.04,1.10 -12.65,1.30 -13.69,1.12 -14.73,0.95 -15.27,0.57 -15.81,0.18 -17.09,-0.31 -18.36,-0.80 -18.44,-0.82 -18.52,-0.84 -18.59,-0.88 -18.66,-0.91 -18.72,-0.97 -18.78,-1.02 -18.82,-1.08 -18.87,-1.15 -18.90,-1.22 -18.92,-1.29 -18.93,-1.37 -18.94,-1.45 -18.93,-1.53 -18.93,-1.61 -18.90,-1.68 -18.87,-1.76 -18.83,-1.82 -18.78,-1.89 -18.72,-1.94 -18.66,-1.99 -18.59,-2.03 -18.52,-2.07 -18.45,-2.09 -18.37,-2.11 -18.29,-2.11 -18.21,-2.11 -18.15,-2.09 -18.08,-2.08 -17.99,-2.03 -17.89,-1.98 -17.82,-1.91 -17.75,-1.83 -17.70,-1.73 -17.66,-1.64 -17.64,-1.53 -17.63,-1.43 -17.65,-1.32 -17.67,-1.22 -17.73,-1.13 -17.78,-1.03 -17.86,-0.97 -17.94,-0.90 -18.04,-0.86 -18.14,-0.82 -18.25,-0.81 -18.35,-0.80 -18.45,-0.83 -18.56,-0.86 -18.65,-0.92 -18.73,-0.97 -18.80,-1.06 -18.86,-1.14 -18.90,-1.24 -18.93,-1.34 -18.94,-1.45 -18.94,-1.56 -18.90,-1.66 -18.87,-1.76 -18.81,-1.84 -18.74,-1.93 -18.66,-1.99 -18.57,-2.05 -18.47,-2.08 -18.36,-2.11 -18.26,-2.10 -18.15,-2.10 -18.05,-2.06 -17.95,-2.02 -17.87,-1.95 -17.79,-1.88 -17.74,-1.79 -17.68,-1.70 -17.66,-1.60 -17.63,-1.50 -17.64,-1.39 -17.65,-1.29 -17.70,-1.19 -17.74,-1.09 -17.81,-1.01 -17.88,-0.94 -17.98,-0.89 -18.07,-0.83 -18.18,-0.82 -18.28,-0.80 -18.32,-0.80 -18.36,-0.80 -18.44,-0.82 -18.52,-0.84 -18.59,-0.88 -18.66,-0.91 -18.72,-0.97 -18.78,-1.02 -18.82,-1.08 -18.87,-1.15 -18.90,-1.22 -18.92,-1.29 -18.93,-1.37 -18.94,-1.45 -18.93,-1.53 -18.93,-1.61 -18.90,-1.68 -18.87,-1.76 -18.83,-1.82 -18.78,-1.89 -18.72,-1.94 -18.66,-1.99 -18.59,-2.03 -18.52,-2.07 -18.45,-2.09 -18.37,-2.11 -18.29,-2.11 -18.21,-2.11 -16.26,-2.68 -14.31,-3.25 -13.81,-2.99 -13.32,-2.74 -12.56,-2.73 -11.80,-2.72 -10.86,-2.62 -9.93,-2.52 -9.44,-2.27 -8.95,-2.02 -8.22,-2.02 -7.49,-2.02 -6.76,-2.01 -6.03,-2.01 -5.29,-2.01 -4.55,-2.01 -3.80,-2.00 -3.04,-2.00 -2.15,-1.99 -1.25,-1.99 -0.62,-1.33 0,-0.67 0.08,-0.66 0.16,-0.65 0.23,-0.62 0.31,-0.59 0.38,-0.55 0.44,-0.50 0.50,-0.44 0.55,-0.38 0.59,-0.31 0.63,-0.24 0.65,-0.16 0.67,-0.08 0.67,0.00 0.67,0.08 0.65,0.16 0.63,0.24 0.59,0.31 0.55,0.38 0.50,0.44 0.44,0.50 0.38,0.55 0.31,0.59 0.23,0.62 0.16,0.65 0.08,0.66 -0.00,0.67 -0.00,0.67 L 0,0.67 Z"></path></g></svg>